<?xml version="1.0" encoding="utf-8"?>
<!-- Generator: Adobe Illustrator 25.2.1, SVG Export Plug-In . SVG Version: 6.00 Build 0)  -->
<svg version="1.1" id="Layer_1" xmlns="http://www.w3.org/2000/svg" xmlns:xlink="http://www.w3.org/1999/xlink" x="0px" y="0px"
	 viewBox="0 0 30 30" style="enable-background:new 0 0 30 30;" xml:space="preserve">
<style type="text/css">
	.st0{fill:#FFFFFF;}
	.st1{fill:#B02071;}
	.st2{fill:#26A9E1;}
	.st3{fill-rule:evenodd;clip-rule:evenodd;fill:#1E4997;}
	.st4{fill-rule:evenodd;clip-rule:evenodd;fill:#26A9E1;}
	.st5{fill:#1D1D1A;}
	.st6{fill-rule:evenodd;clip-rule:evenodd;fill:#EB2127;}
	.st7{fill:#0D4624;}
	.st8{clip-path:url(#SVGID_2_);fill:#026A42;}
	.st9{clip-path:url(#SVGID_2_);fill:#026B43;}
	.st10{clip-path:url(#SVGID_2_);fill:#026C43;}
	.st11{clip-path:url(#SVGID_2_);fill:#036C43;}
	.st12{clip-path:url(#SVGID_2_);fill:#036D43;}
	.st13{clip-path:url(#SVGID_2_);fill:#036E44;}
	.st14{clip-path:url(#SVGID_2_);fill:#036F44;}
	.st15{clip-path:url(#SVGID_2_);fill:#037044;}
	.st16{clip-path:url(#SVGID_2_);fill:#037045;}
	.st17{clip-path:url(#SVGID_2_);fill:#037145;}
	.st18{clip-path:url(#SVGID_2_);fill:#037245;}
	.st19{clip-path:url(#SVGID_2_);fill:#037345;}
	.st20{clip-path:url(#SVGID_2_);fill:#037346;}
	.st21{clip-path:url(#SVGID_2_);fill:#037446;}
	.st22{clip-path:url(#SVGID_2_);fill:#037546;}
	.st23{clip-path:url(#SVGID_2_);fill:#027647;}
	.st24{clip-path:url(#SVGID_2_);fill:#027747;}
	.st25{clip-path:url(#SVGID_2_);fill:#027847;}
	.st26{clip-path:url(#SVGID_2_);fill:#027948;}
	.st27{clip-path:url(#SVGID_2_);fill:#027A48;}
	.st28{clip-path:url(#SVGID_2_);fill:#027B48;}
	.st29{clip-path:url(#SVGID_2_);fill:#027C49;}
	.st30{clip-path:url(#SVGID_2_);fill:#067D49;}
	.st31{clip-path:url(#SVGID_2_);fill:#0B7D49;}
	.st32{clip-path:url(#SVGID_2_);fill:#0F7E49;}
	.st33{clip-path:url(#SVGID_2_);fill:#127F49;}
	.st34{clip-path:url(#SVGID_2_);fill:#157F49;}
	.st35{clip-path:url(#SVGID_2_);fill:#188049;}
	.st36{clip-path:url(#SVGID_2_);fill:#1A8149;}
	.st37{clip-path:url(#SVGID_2_);fill:#1D8149;}
	.st38{clip-path:url(#SVGID_2_);fill:#1F8249;}
	.st39{clip-path:url(#SVGID_2_);fill:#218249;}
	.st40{clip-path:url(#SVGID_2_);fill:#238349;}
	.st41{clip-path:url(#SVGID_2_);fill:#248449;}
	.st42{clip-path:url(#SVGID_2_);fill:#268449;}
	.st43{clip-path:url(#SVGID_2_);fill:#288549;}
	.st44{clip-path:url(#SVGID_2_);fill:#2A8649;}
	.st45{clip-path:url(#SVGID_2_);fill:#2B8649;}
	.st46{clip-path:url(#SVGID_2_);fill:#2D8749;}
	.st47{clip-path:url(#SVGID_2_);fill:#2E8849;}
	.st48{clip-path:url(#SVGID_2_);fill:#308849;}
	.st49{clip-path:url(#SVGID_2_);fill:#318949;}
	.st50{clip-path:url(#SVGID_2_);fill:#338A49;}
	.st51{clip-path:url(#SVGID_2_);fill:#348A49;}
	.st52{clip-path:url(#SVGID_2_);fill:#358B49;}
	.st53{clip-path:url(#SVGID_2_);fill:#378C49;}
	.st54{clip-path:url(#SVGID_2_);fill:#388D49;}
	.st55{clip-path:url(#SVGID_2_);fill:#3A8D48;}
	.st56{clip-path:url(#SVGID_2_);fill:#3B8E48;}
	.st57{clip-path:url(#SVGID_2_);fill:#3C8F48;}
	.st58{clip-path:url(#SVGID_2_);fill:#3E8F48;}
	.st59{clip-path:url(#SVGID_2_);fill:#3F9048;}
	.st60{clip-path:url(#SVGID_2_);fill:#409148;}
	.st61{clip-path:url(#SVGID_2_);fill:#429148;}
	.st62{clip-path:url(#SVGID_2_);fill:#439248;}
	.st63{clip-path:url(#SVGID_2_);fill:#449348;}
	.st64{clip-path:url(#SVGID_2_);fill:#469448;}
	.st65{clip-path:url(#SVGID_2_);fill:#479448;}
	.st66{clip-path:url(#SVGID_2_);fill:#489548;}
	.st67{clip-path:url(#SVGID_2_);fill:#499648;}
	.st68{clip-path:url(#SVGID_2_);fill:#4B9648;}
	.st69{clip-path:url(#SVGID_2_);fill:#4C9748;}
	.st70{clip-path:url(#SVGID_2_);fill:#4D9848;}
	.st71{clip-path:url(#SVGID_2_);fill:#4E9948;}
	.st72{clip-path:url(#SVGID_2_);fill:#509948;}
	.st73{clip-path:url(#SVGID_2_);fill:#519A48;}
	.st74{clip-path:url(#SVGID_2_);fill:#529B47;}
	.st75{clip-path:url(#SVGID_2_);fill:#539C47;}
	.st76{clip-path:url(#SVGID_2_);fill:#549C47;}
	.st77{clip-path:url(#SVGID_2_);fill:#559D47;}
	.st78{clip-path:url(#SVGID_2_);fill:#569E47;}
	.st79{clip-path:url(#SVGID_2_);fill:#589F47;}
	.st80{clip-path:url(#SVGID_2_);fill:#599F47;}
	.st81{clip-path:url(#SVGID_2_);fill:#5AA047;}
	.st82{clip-path:url(#SVGID_2_);fill:#5BA147;}
	.st83{clip-path:url(#SVGID_2_);fill:#5CA247;}
	.st84{clip-path:url(#SVGID_2_);fill:#5DA346;}
	.st85{clip-path:url(#SVGID_2_);fill:#5EA346;}
	.st86{clip-path:url(#SVGID_2_);fill:#5FA446;}
	.st87{clip-path:url(#SVGID_2_);fill:#61A546;}
	.st88{clip-path:url(#SVGID_2_);fill:#62A646;}
	.st89{clip-path:url(#SVGID_2_);fill:#63A746;}
	.st90{clip-path:url(#SVGID_2_);fill:#64A746;}
	.st91{clip-path:url(#SVGID_2_);fill:#65A846;}
	.st92{clip-path:url(#SVGID_2_);fill:#66A946;}
	.st93{clip-path:url(#SVGID_2_);fill:#67AA45;}
	.st94{clip-path:url(#SVGID_2_);fill:#69AB45;}
	.st95{clip-path:url(#SVGID_2_);fill:#6AAB45;}
	.st96{clip-path:url(#SVGID_2_);fill:#6BAC45;}
	.st97{clip-path:url(#SVGID_2_);fill:#6CAD45;}
	.st98{clip-path:url(#SVGID_2_);fill:#6DAE45;}
	.st99{clip-path:url(#SVGID_2_);fill:#6EAF45;}
	.st100{clip-path:url(#SVGID_2_);fill:#6FB044;}
	.st101{clip-path:url(#SVGID_2_);fill:#70B144;}
	.st102{clip-path:url(#SVGID_2_);fill:#72B144;}
	.st103{clip-path:url(#SVGID_2_);fill:#73B244;}
	.st104{clip-path:url(#SVGID_2_);fill:#74B344;}
	.st105{clip-path:url(#SVGID_2_);fill:#75B444;}
	.st106{clip-path:url(#SVGID_2_);fill:#76B544;}
	.st107{clip-path:url(#SVGID_2_);fill:#77B644;}
	.st108{clip-path:url(#SVGID_2_);fill:#79B743;}
	.st109{clip-path:url(#SVGID_2_);fill:#7AB843;}
	.st110{clip-path:url(#SVGID_2_);fill:#7BB943;}
	.st111{clip-path:url(#SVGID_2_);fill:#7CBA43;}
	.st112{clip-path:url(#SVGID_2_);fill:#7DBB43;}
	.st113{clip-path:url(#SVGID_2_);fill:#7EBC43;}
	.st114{clip-path:url(#SVGID_2_);fill:#80BD43;}
	.st115{clip-path:url(#SVGID_2_);fill:#81BF42;}
	.st116{clip-path:url(#SVGID_2_);fill:#82C042;}
	.st117{clip-path:url(#SVGID_2_);fill:#83C142;}
	.st118{clip-path:url(#SVGID_2_);fill:#84C342;}
	.st119{clip-path:url(#SVGID_2_);fill:#86C442;}
	.st120{clip-path:url(#SVGID_4_);fill:#026A42;}
	.st121{clip-path:url(#SVGID_4_);fill:#026B43;}
	.st122{clip-path:url(#SVGID_4_);fill:#026C43;}
	.st123{clip-path:url(#SVGID_4_);fill:#036C43;}
	.st124{clip-path:url(#SVGID_4_);fill:#036D43;}
	.st125{clip-path:url(#SVGID_4_);fill:#036E44;}
	.st126{clip-path:url(#SVGID_4_);fill:#036F44;}
	.st127{clip-path:url(#SVGID_4_);fill:#037044;}
	.st128{clip-path:url(#SVGID_4_);fill:#037045;}
	.st129{clip-path:url(#SVGID_4_);fill:#037145;}
	.st130{clip-path:url(#SVGID_4_);fill:#037245;}
	.st131{clip-path:url(#SVGID_4_);fill:#037345;}
	.st132{clip-path:url(#SVGID_4_);fill:#037346;}
	.st133{clip-path:url(#SVGID_4_);fill:#037446;}
	.st134{clip-path:url(#SVGID_4_);fill:#037546;}
	.st135{clip-path:url(#SVGID_4_);fill:#027647;}
	.st136{clip-path:url(#SVGID_4_);fill:#027747;}
	.st137{clip-path:url(#SVGID_4_);fill:#027847;}
	.st138{clip-path:url(#SVGID_4_);fill:#027948;}
	.st139{clip-path:url(#SVGID_4_);fill:#027A48;}
	.st140{clip-path:url(#SVGID_4_);fill:#027B48;}
	.st141{clip-path:url(#SVGID_4_);fill:#027C49;}
	.st142{clip-path:url(#SVGID_4_);fill:#067D49;}
	.st143{clip-path:url(#SVGID_4_);fill:#0B7D49;}
	.st144{clip-path:url(#SVGID_4_);fill:#0F7E49;}
	.st145{clip-path:url(#SVGID_4_);fill:#127F49;}
	.st146{clip-path:url(#SVGID_4_);fill:#157F49;}
	.st147{clip-path:url(#SVGID_4_);fill:#188049;}
	.st148{clip-path:url(#SVGID_4_);fill:#1A8149;}
	.st149{clip-path:url(#SVGID_4_);fill:#1D8149;}
	.st150{clip-path:url(#SVGID_4_);fill:#1F8249;}
	.st151{clip-path:url(#SVGID_4_);fill:#218249;}
	.st152{clip-path:url(#SVGID_4_);fill:#238349;}
	.st153{clip-path:url(#SVGID_4_);fill:#248449;}
	.st154{clip-path:url(#SVGID_4_);fill:#268449;}
	.st155{clip-path:url(#SVGID_4_);fill:#288549;}
	.st156{clip-path:url(#SVGID_4_);fill:#2A8649;}
	.st157{clip-path:url(#SVGID_4_);fill:#2B8649;}
	.st158{clip-path:url(#SVGID_4_);fill:#2D8749;}
	.st159{clip-path:url(#SVGID_4_);fill:#2E8849;}
	.st160{clip-path:url(#SVGID_4_);fill:#308849;}
	.st161{clip-path:url(#SVGID_4_);fill:#318949;}
	.st162{clip-path:url(#SVGID_4_);fill:#338A49;}
	.st163{clip-path:url(#SVGID_4_);fill:#348A49;}
	.st164{clip-path:url(#SVGID_4_);fill:#358B49;}
	.st165{clip-path:url(#SVGID_4_);fill:#378C49;}
	.st166{clip-path:url(#SVGID_4_);fill:#388D49;}
	.st167{clip-path:url(#SVGID_4_);fill:#3A8D48;}
	.st168{clip-path:url(#SVGID_4_);fill:#3B8E48;}
	.st169{clip-path:url(#SVGID_4_);fill:#3C8F48;}
	.st170{clip-path:url(#SVGID_4_);fill:#3E8F48;}
	.st171{clip-path:url(#SVGID_4_);fill:#3F9048;}
	.st172{clip-path:url(#SVGID_4_);fill:#409148;}
	.st173{clip-path:url(#SVGID_4_);fill:#429148;}
	.st174{clip-path:url(#SVGID_4_);fill:#439248;}
	.st175{clip-path:url(#SVGID_4_);fill:#449348;}
	.st176{clip-path:url(#SVGID_4_);fill:#469448;}
	.st177{clip-path:url(#SVGID_4_);fill:#479448;}
	.st178{clip-path:url(#SVGID_4_);fill:#489548;}
	.st179{clip-path:url(#SVGID_4_);fill:#499648;}
	.st180{clip-path:url(#SVGID_4_);fill:#4B9648;}
	.st181{clip-path:url(#SVGID_4_);fill:#4C9748;}
	.st182{clip-path:url(#SVGID_4_);fill:#4D9848;}
	.st183{clip-path:url(#SVGID_4_);fill:#4E9948;}
	.st184{clip-path:url(#SVGID_4_);fill:#509948;}
	.st185{clip-path:url(#SVGID_4_);fill:#519A48;}
	.st186{clip-path:url(#SVGID_4_);fill:#529B47;}
	.st187{clip-path:url(#SVGID_4_);fill:#539C47;}
	.st188{clip-path:url(#SVGID_4_);fill:#549C47;}
	.st189{clip-path:url(#SVGID_4_);fill:#559D47;}
	.st190{clip-path:url(#SVGID_4_);fill:#569E47;}
	.st191{clip-path:url(#SVGID_4_);fill:#589F47;}
	.st192{clip-path:url(#SVGID_4_);fill:#599F47;}
	.st193{clip-path:url(#SVGID_4_);fill:#5AA047;}
	.st194{clip-path:url(#SVGID_4_);fill:#5BA147;}
	.st195{clip-path:url(#SVGID_4_);fill:#5CA247;}
	.st196{clip-path:url(#SVGID_4_);fill:#5DA346;}
	.st197{clip-path:url(#SVGID_4_);fill:#5EA346;}
	.st198{clip-path:url(#SVGID_4_);fill:#5FA446;}
	.st199{clip-path:url(#SVGID_4_);fill:#61A546;}
	.st200{clip-path:url(#SVGID_4_);fill:#62A646;}
	.st201{clip-path:url(#SVGID_4_);fill:#63A746;}
	.st202{clip-path:url(#SVGID_4_);fill:#64A746;}
	.st203{clip-path:url(#SVGID_4_);fill:#65A846;}
	.st204{clip-path:url(#SVGID_4_);fill:#66A946;}
	.st205{clip-path:url(#SVGID_4_);fill:#67AA45;}
	.st206{clip-path:url(#SVGID_4_);fill:#69AB45;}
	.st207{clip-path:url(#SVGID_4_);fill:#6AAB45;}
	.st208{clip-path:url(#SVGID_4_);fill:#6BAC45;}
	.st209{clip-path:url(#SVGID_4_);fill:#6CAD45;}
	.st210{clip-path:url(#SVGID_4_);fill:#6DAE45;}
	.st211{clip-path:url(#SVGID_4_);fill:#6EAF45;}
	.st212{clip-path:url(#SVGID_4_);fill:#6FB044;}
	.st213{clip-path:url(#SVGID_4_);fill:#70B144;}
	.st214{clip-path:url(#SVGID_4_);fill:#72B144;}
	.st215{clip-path:url(#SVGID_4_);fill:#73B244;}
	.st216{clip-path:url(#SVGID_4_);fill:#74B344;}
	.st217{clip-path:url(#SVGID_4_);fill:#75B444;}
	.st218{clip-path:url(#SVGID_4_);fill:#76B544;}
	.st219{clip-path:url(#SVGID_4_);fill:#77B644;}
	.st220{clip-path:url(#SVGID_4_);fill:#79B743;}
	.st221{clip-path:url(#SVGID_4_);fill:#7AB843;}
	.st222{clip-path:url(#SVGID_4_);fill:#7BB943;}
	.st223{clip-path:url(#SVGID_4_);fill:#7CBA43;}
	.st224{clip-path:url(#SVGID_4_);fill:#7DBB43;}
	.st225{clip-path:url(#SVGID_4_);fill:#7EBC43;}
	.st226{clip-path:url(#SVGID_4_);fill:#80BD43;}
	.st227{clip-path:url(#SVGID_4_);fill:#81BF42;}
	.st228{clip-path:url(#SVGID_4_);fill:#82C042;}
	.st229{clip-path:url(#SVGID_4_);fill:#83C142;}
	.st230{clip-path:url(#SVGID_4_);fill:#84C342;}
	.st231{clip-path:url(#SVGID_4_);fill:#86C442;}
	.st232{fill:#068547;}
	.st233{fill-rule:evenodd;clip-rule:evenodd;fill:#E9262A;}
	.st234{fill:#394A9F;}
	.st235{fill:#EA304C;}
</style>
<g>
	<g>
		<path class="st0" d="M25.91,29.88l-21.82,0c-2.18,0-3.97-1.79-3.97-3.97l0-21.82c0-2.18,1.79-3.97,3.97-3.97l21.82,0
			c2.18,0,3.97,1.79,3.97,3.97l0,21.82C29.87,28.09,28.09,29.87,25.91,29.88z"/>
		<path class="st2" d="M3.03,29.86C1.29,29.39,0,27.8,0,25.91L0,4.09C0,1.84,1.84,0,4.09,0l21.82,0C27,0,28.02,0.43,28.8,1.2
			C29.57,1.98,30,3,30,4.09l0,21.82C29.99,28.16,28.16,30,25.91,30L4.09,30C3.73,30,3.37,29.95,3.03,29.86z M26.9,0.38
			c-0.32-0.09-0.65-0.13-0.99-0.13l-21.82,0c-2.12,0-3.84,1.72-3.84,3.84l0,21.82c0,2.12,1.73,3.84,3.84,3.84l21.82,0
			c2.11,0,3.84-1.73,3.84-3.84l0-21.82c0-1.02-0.4-1.99-1.13-2.71C28.14,0.89,27.54,0.55,26.9,0.38z"/>
	</g>
	<g>
		<g>
			<path class="st3" d="M22.31,14.09c0.59-0.04,1.17-0.05,1.73-0.13c0.53-0.08,0.71-0.47,0.74-0.86c0.04-0.5-0.2-0.85-0.65-0.99
				c-0.59-0.18-1.2-0.03-1.81-0.09C22.31,12.71,22.31,13.37,22.31,14.09L22.31,14.09z M22.31,18.05c0.68-0.04,1.34-0.05,1.99-0.13
				c0.52-0.07,0.86-0.47,0.89-0.91c0.06-0.77-0.28-1.11-0.78-1.27c-0.68-0.22-1.39-0.09-2.1-0.13
				C22.31,16.43,22.31,17.21,22.31,18.05L22.31,18.05z M25.66,14.73c0.15,0.07,0.34,0.14,0.53,0.24c0.61,0.32,1,0.83,1.14,1.5
				c0.12,0.54,0.06,1.09-0.15,1.62c-0.18,0.46-0.48,0.79-0.9,1.04c-0.45,0.27-0.95,0.44-1.47,0.46c-0.94,0.05-1.89,0.06-2.83,0.09
				c-0.48,0.01-0.95,0-1.42,0c-0.25,0-0.33-0.08-0.33-0.33c0-2.89,0-5.78,0-8.68c0-0.27,0.06-0.33,0.34-0.34
				c1.09,0,2.19-0.01,3.28,0c0.66,0.01,1.31,0.12,1.91,0.45c0.59,0.33,0.94,0.83,1.07,1.49c0.14,0.71-0.01,1.35-0.48,1.89
				C26.17,14.39,25.89,14.54,25.66,14.73z"/>
		</g>
		<g>
			<path class="st3" d="M7.11,12.46C6.73,13.62,6.37,14.74,6,15.87c0.74,0,1.47,0,2.21,0C7.84,14.74,7.49,13.63,7.11,12.46
				L7.11,12.46z M7.19,10.33c0.29,0,0.58,0,0.87,0c0.19,0.01,0.34,0.07,0.41,0.28c0.55,1.55,1.13,3.09,1.69,4.64
				c0.5,1.35,0.99,2.7,1.49,4.05c0.11,0.3,0.06,0.36-0.26,0.36c-0.54,0-1.09,0-1.63,0c-0.23,0-0.36-0.11-0.42-0.31
				c-0.19-0.56-0.39-1.13-0.57-1.7c-0.03-0.11-0.08-0.14-0.18-0.14c-0.99,0-1.97,0-2.95,0c-0.11,0-0.15,0.05-0.18,0.15
				c-0.19,0.58-0.39,1.15-0.57,1.72c-0.07,0.21-0.2,0.28-0.39,0.28c-0.54,0-1.09,0.01-1.63,0c-0.24,0-0.3-0.08-0.21-0.3
				c0.4-1.08,0.81-2.16,1.22-3.25c0.32-0.87,0.64-1.74,0.97-2.61c0.35-0.94,0.7-1.89,1.05-2.83c0.1-0.27,0.22-0.34,0.51-0.34
				C6.65,10.33,6.92,10.34,7.19,10.33z"/>
		</g>
		<g>
			<path class="st3" d="M13.5,15.01c0.02,1.29,0.79,2.38,1.97,2.77c1,0.33,1.9,0.08,2.69-0.6c0.16-0.14,0.27-0.15,0.43,0
				c0.31,0.3,0.62,0.61,0.92,0.92c0.16,0.17,0.16,0.31-0.01,0.47c-0.73,0.68-1.57,1.11-2.57,1.27c-0.75,0.12-1.48,0.07-2.19-0.14
				c-0.67-0.2-1.26-0.54-1.78-1.01c-0.86-0.76-1.41-1.71-1.59-2.84c-0.23-1.45,0.07-2.8,1.01-3.95c0.73-0.89,1.65-1.49,2.8-1.69
				c0.32-0.06,0.66-0.13,0.99-0.12c1.13,0.04,2.18,0.36,3.06,1.11c0.07,0.06,0.14,0.11,0.21,0.16c0.19,0.15,0.21,0.3,0.03,0.5
				c-0.28,0.31-0.59,0.62-0.9,0.9c-0.13,0.12-0.29,0.13-0.44,0c-0.41-0.34-0.86-0.59-1.39-0.65c-0.7-0.1-1.38,0.04-1.96,0.46
				C13.96,13.15,13.52,13.98,13.5,15.01z"/>
		</g>
		<g>
			<path class="st4" d="M18.05,15.02c0.01,0.94-0.73,1.67-1.67,1.67c-0.92,0-1.7-0.72-1.68-1.73c0.02-0.95,0.73-1.64,1.67-1.64
				C17.29,13.32,18.05,14,18.05,15.02z"/>
		</g>
	</g>
</g>
</svg>
