<?xml version="1.0" encoding="utf-8"?>
<!-- Generator: Adobe Illustrator 25.0.0, SVG Export Plug-In . SVG Version: 6.00 Build 0)  -->
<svg version="1.1" id="Layer_1" xmlns="http://www.w3.org/2000/svg" xmlns:xlink="http://www.w3.org/1999/xlink" x="0px" y="0px"
	 viewBox="0 0 30 30" style="enable-background:new 0 0 30 30;" xml:space="preserve">
<style type="text/css">
	.st0{fill:#FFFFFF;}
	.st1{fill:#21409A;}
	.st2{fill:#ED1D24;}
</style>
<g>
	<g>
		<path class="st0" d="M26.1,29.9H4.3c-2.2,0-4-1.8-4-4V4.1c0-2.2,1.8-4,4-4h21.8c2.2,0,4,1.8,4,4v21.8C30,28.1,28.3,29.9,26.1,29.9
			z"/>
		<path class="st1" d="M3.2,29.9c-1.7-0.5-3-2.1-3-4V4.1C0.2,1.8,2,0,4.3,0h21.8c1.1,0,2.1,0.4,2.9,1.2C29.7,2,30.2,3,30.2,4.1v21.8
			c0,2.2-1.8,4.1-4.1,4.1H4.3C3.9,30,3.5,30,3.2,29.9z M27.1,0.4c-0.3-0.1-0.6-0.1-1-0.1H4.3C2.1,0.3,0.4,2,0.4,4.1v21.8
			c0,2.1,1.7,3.8,3.8,3.8h21.8c2.1,0,3.8-1.7,3.8-3.8V4.1c0-1-0.4-2-1.1-2.7C28.3,0.9,27.7,0.6,27.1,0.4z"/>
	</g>
</g>
<g id="XMLID_1_">
	<rect id="XMLID_15_" x="7.8" y="12.2" class="st1" width="1.3" height="5.8"/>
	<g id="XMLID_17_">
		<path id="XMLID_14_" class="st1" d="M16.9,15.9c-0.1-0.4-1.5-3.8-1.5-3.8l-1.4,0l0,0.1l2.2,5.8h1.2l2.2-5.8h-1.4
			C18.3,12.2,17.1,15.3,16.9,15.9"/>
		<path class="st1" d="M12.7,16.8c-0.3,0.2-0.8,0.3-1.4,0.3h-0.2v-4h0.2c0.8,0,1.1,0.1,1.5,0.3c0.4,0.3,0.7,0.9,0.7,1.7
			C13.4,15.8,13.1,16.5,12.7,16.8 M13.7,12.7c-0.5-0.4-1.2-0.6-2.4-0.6H9.8V18h1.5c1.2,0,1.8-0.1,2.3-0.4c0.8-0.5,1.1-1.3,1.1-2.5
			C14.7,14,14.4,13.2,13.7,12.7"/>
		<path class="st1" d="M5.4,17c-0.2,0.1-0.6,0.1-1.3,0.1H3.6v-1.5h0.5c0.5,0,1,0,1.3,0.1c0.3,0.1,0.5,0.3,0.5,0.6
			C5.9,16.7,5.7,16.9,5.4,17 M3.6,13H4c0.7,0,1.1,0,1.4,0.1c0.2,0.1,0.4,0.3,0.4,0.6c0,0.3-0.1,0.4-0.4,0.6
			c-0.2,0.1-0.7,0.2-1.3,0.2H3.6V13z M6,15c0.7-0.2,1.1-0.6,1.1-1.3c0-0.6-0.3-1.1-0.8-1.3c-0.4-0.2-0.9-0.3-1.9-0.3h-2V18h2.2
			c0.9,0,1.4-0.1,1.8-0.3c0.5-0.3,0.8-0.8,0.8-1.3C7.2,15.6,6.8,15.2,6,15"/>
	</g>
	<polyline id="XMLID_8_" class="st0" points="23.9,11.2 20,15 23.9,18.9 23.9,18.9 27.7,15 23.9,11.2 	"/>
	<polyline id="XMLID_7_" class="st2" points="23.2,12.4 23.2,15.6 23.9,15.6 24.5,15.6 24.5,12.4 23.9,12.4 	"/>
	<g id="XMLID_16_">
		<path class="st1" d="M22.5,13.1h0.6V15l-0.6,0V13.1z M24.9,15l-0.3,0l0-1.9h0.3c0.4,0,0.6,0.4,0.6,1C25.6,14.6,25.3,15,24.9,15"/>
	</g>
	<path class="st2" d="M23.9,18.9L23.9,18.9L20,15l3.9-3.8l0,0l3.9,3.8L23.9,18.9z M19.7,15L19.7,15l4,4l0.2,0.2L24,19l4-4l-4.1-4.1"
		/>
	<polyline id="XMLID_2_" class="st2" points="23.9,16.9 22,15 20.2,15 23.4,18.2 23.4,18.2 23.9,18.7 27.6,15 25.7,15 	"/>
</g>
</svg>
