<svg width="48" height="48" viewBox="0 0 48 48" fill="none" xmlns="http://www.w3.org/2000/svg">
<g id="Change Primary Domain">
<g id="Group">
<path id="Vector" d="M24.0001 5.65039V15.1404H7.56006C10.6601 9.78039 16.3101 6.08039 22.8501 5.69039C23.2301 5.67039 23.6101 5.66039 24.0001 5.66039V5.65039Z" stroke="#38A7FF" stroke-miterlimit="10"/>
<path id="Vector_2" d="M40.4302 15.1304H23.9902V5.65039C31.0102 5.65039 37.1402 9.47039 40.4302 15.1404V15.1304Z" stroke="#38A7FF" stroke-miterlimit="10"/>
<path id="Vector_3" d="M24 15.1309V24.6209H5.02002C5.02002 21.1709 5.95002 17.9209 7.56002 15.1309H23.99H24Z" stroke="#38A7FF" stroke-miterlimit="10"/>
<path id="Vector_4" d="M42.97 24.6209H24V15.1309H40.44C42.05 17.9209 42.98 21.1609 42.98 24.6209H42.97Z" stroke="#38A7FF" stroke-miterlimit="10"/>
<path id="Vector_5" d="M24 24.6201V34.1101H7.56002C5.94002 31.3201 5.02002 28.0801 5.02002 24.6201H23.99H24Z" stroke="#38A7FF" stroke-miterlimit="10"/>
<path id="Vector_6" d="M42.9702 24.6201C42.9702 28.0701 42.0502 31.3101 40.4302 34.1101H23.9902V24.6201H42.9602H42.9702Z" stroke="#38A7FF" stroke-miterlimit="10"/>
<path id="Vector_7" d="M24.0001 34.1104V43.5904C23.6101 43.5904 23.2401 43.5904 22.8501 43.5604C16.3001 43.1704 10.6601 39.4704 7.56006 34.1104H24.0001Z" stroke="#38A7FF" stroke-miterlimit="10"/>
<path id="Vector_8" d="M40.4302 34.1104C37.1502 39.7804 31.0202 43.5904 23.9902 43.5904V34.1104H40.4302Z" stroke="#38A7FF" stroke-miterlimit="10"/>
<path id="Vector_9" d="M22.8499 43.5607C20.2099 41.6207 18.0099 39.0507 16.4199 36.0307C16.0899 35.4107 15.7799 34.7607 15.5099 34.1107C14.3099 31.2207 13.6299 28.0107 13.6299 24.6207C13.6299 21.2307 14.3099 18.0207 15.5099 15.1307C15.7899 14.4707 16.0899 13.8307 16.4199 13.2107C18.0099 10.1907 20.2199 7.61066 22.8499 5.68066" stroke="#38A7FF" stroke-miterlimit="10"/>
<path id="Vector_10" d="M25.1499 43.5607C27.7899 41.6207 29.9899 39.0507 31.5799 36.0307C31.9099 35.4107 32.2199 34.7607 32.4899 34.1107C33.6899 31.2207 34.3699 28.0107 34.3699 24.6207C34.3699 21.2307 33.6999 18.0207 32.4899 15.1307C32.2099 14.4707 31.9099 13.8307 31.5799 13.2107C29.9899 10.1907 27.7799 7.61066 25.1499 5.68066" stroke="#38A7FF" stroke-miterlimit="10"/>
</g>
<g id="Group_2">
<path id="Vector_11" d="M32.2701 45.2296C38.8701 45.2296 44.2201 39.8796 44.2201 33.2896C44.2201 26.6996 38.8701 21.3496 32.2701 21.3496C25.6701 21.3496 20.3301 26.6996 20.3301 33.2896C20.3301 39.8796 25.6801 45.2296 32.2701 45.2296Z" fill="white" stroke="#FF6C2C" stroke-width="1.5" stroke-miterlimit="10"/>
<path id="Vector_12" d="M30.3403 39.6694C30.1503 39.6694 29.9703 39.5994 29.8303 39.4694L25.5403 35.5294C25.3703 35.3794 25.3603 35.1194 25.5203 34.9494L25.5403 34.9294L29.8303 30.9894C30.1403 30.6994 30.6203 30.7294 30.9103 31.0394C31.0403 31.1794 31.1103 31.3694 31.1103 31.5594V32.8794H33.8403C34.0703 32.8794 34.2503 33.0594 34.2503 33.2894V34.8894L38.1103 31.3394L34.2503 27.7894V29.3894C34.2503 29.6194 34.0703 29.7994 33.8403 29.7994H27.7303C27.5003 29.7994 27.3203 29.6194 27.3203 29.3894C27.3203 29.1594 27.5003 28.9794 27.7303 28.9794H33.4303V27.6594C33.4303 27.2394 33.7703 26.8994 34.1903 26.8994C34.3803 26.8994 34.5703 26.9694 34.7103 27.0994L39.0003 31.0394C39.1703 31.1894 39.1803 31.4494 39.0203 31.6194L39.0003 31.6394L34.7103 35.5794C34.4003 35.8694 33.9203 35.8394 33.6303 35.5294C33.5003 35.3894 33.4303 35.1994 33.4303 35.0094V33.6894H30.7003C30.4703 33.6894 30.2903 33.5094 30.2903 33.2794V31.6794L26.4303 35.2294L30.2903 38.7794V37.1794C30.2903 36.9494 30.4703 36.7694 30.7003 36.7694H36.0803C36.3103 36.7694 36.4903 36.9494 36.4903 37.1794C36.4903 37.4094 36.3103 37.5894 36.0803 37.5894H31.1103V38.9094C31.1103 39.2094 30.9303 39.4894 30.6503 39.6094C30.5503 39.6494 30.4503 39.6794 30.3403 39.6794V39.6694Z" fill="#FF6C2C"/>
</g>
</g>
</svg>
