<svg width="49" height="48" viewBox="0 0 49 48" fill="none" xmlns="http://www.w3.org/2000/svg">
<g id="Unblock IP">
<g id="08-ip address">
<path id="Vector" d="M18.0796 13.4395V21.1195" stroke="#38A7FF" stroke-width="1.47" stroke-miterlimit="10"/>
<path id="Vector_2" d="M22.71 21.12V18.21" stroke="#38A7FF" stroke-width="1.47" stroke-miterlimit="10"/>
<path id="Vector_3" d="M27.2399 35.7295C30.0899 36.3495 31.9699 37.4195 31.9699 38.6395C31.9699 40.5595 27.3099 42.1095 21.5499 42.1095C15.7899 42.1095 11.1299 40.5595 11.1299 38.6395C11.1299 37.4195 13.0099 36.3495 15.8599 35.7295" stroke="#38A7FF" stroke-width="1.47" stroke-miterlimit="10"/>
<path id="Vector_4" d="M21.5497 4.91992C27.9397 4.91992 33.1297 10.0999 33.1297 16.4999C33.1297 19.2299 32.1797 21.7499 30.5997 23.7299L21.5597 35.1799L12.5197 23.7299C10.9297 21.7499 9.98975 19.2399 9.98975 16.4999C9.98975 10.1099 15.1697 4.91992 21.5697 4.91992H21.5497Z" stroke="#38A7FF" stroke-width="1.47" stroke-miterlimit="10"/>
<path id="Vector_5" d="M25.6 17.6497H22.71V14.1797H25.6C26.56 14.1797 27.34 14.9597 27.34 15.9197C27.34 16.8797 26.56 17.6597 25.6 17.6597V17.6497Z" stroke="#38A7FF" stroke-width="1.47" stroke-miterlimit="10"/>
</g>
<path id="Vector_6" d="M34.6 43.9598C40.17 43.9598 44.68 39.4498 44.68 33.8798C44.68 28.3098 40.17 23.7998 34.6 23.7998C29.03 23.7998 24.52 28.3098 24.52 33.8798C24.52 39.4498 29.03 43.9598 34.6 43.9598Z" fill="white" stroke="#FF6C2C" stroke-width="1.27" stroke-miterlimit="10"/>
<path id="check" d="M41 31.1713L40.3826 31.7196L33.8591 37.4766L33.2685 38L32.6779 37.4766L29.6174 34.785L29 34.2368L30.1812 33.0903L30.7987 33.6386L33.2685 35.7819L39.2013 30.5483L39.8188 30L41 31.1713Z" fill="#FF6C2C"/>
</g>
</svg>
