<svg width="49" height="48" viewBox="0 0 49 48" fill="none" xmlns="http://www.w3.org/2000/svg">
<g id="Reinstall">
<g id="g2676">
<path id="path2678" d="M26.42 4.79974C19.87 4.14974 13.16 6.85974 8.95997 12.5397C3.11997 20.4597 4.23997 31.3597 11.19 37.9697" stroke="#FF6C2C" stroke-miterlimit="10"/>
</g>
<g id="g2672">
<path id="path2674" d="M20.3999 42.86C27.5999 44.43 35.3799 41.78 40.0399 35.47C45.8799 27.55 44.7599 16.65 37.8099 10.04" stroke="#FF6C2C" stroke-miterlimit="10"/>
</g>
<g id="g1104">
<g id="g1106">
<g id="g1108">
<g id="g1130">
<path id="path1132" d="M24.4999 29.7302C21.3299 29.7302 18.7599 27.1602 18.7599 23.9902C18.7599 20.8202 21.3299 18.2502 24.4999 18.2502C27.6699 18.2502 30.2399 20.8202 30.2399 23.9902C30.2399 27.1602 27.6699 29.7302 24.4999 29.7302ZM35.9399 21.5202C35.6399 20.1202 35.0899 18.8102 34.3299 17.6502L35.8399 16.1402L32.3499 12.6502L30.8399 14.1602C29.6699 13.4102 28.3699 12.8602 26.9699 12.5502V10.4102H22.0299V12.5502C20.6299 12.8502 19.3199 13.4002 18.1599 14.1602L16.6499 12.6502L13.1599 16.1402L14.6699 17.6502C13.9199 18.8202 13.3699 20.1202 13.0599 21.5202H10.9199V26.4602H13.0599C13.3599 27.8602 13.9099 29.1702 14.6699 30.3302L13.1499 31.8502L16.6399 35.3402L18.1599 33.8202C19.3299 34.5702 20.6299 35.1202 22.0299 35.4302V37.5802H26.9699V35.4302C28.3699 35.1302 29.6799 34.5802 30.8399 33.8202L32.3599 35.3402L35.8499 31.8502L34.3299 30.3302C35.0799 29.1602 35.6299 27.8602 35.9399 26.4602H38.0899V21.5202H35.9399Z" stroke="#38A7FF" stroke-miterlimit="10"/>
</g>
</g>
</g>
</g>
<path id="Vector" d="M35.8301 7.46973L36.1501 12.2897L40.5101 8.63973L35.8301 7.46973Z" fill="#FF6C2C"/>
<path id="Vector_2" d="M13.5298 40.4196L13.1998 35.5996L8.83984 39.2496L13.5298 40.4196Z" fill="#FF6C2C"/>
</g>
</svg>
