<svg width="49" height="48" viewBox="0 0 49 48" fill="none" xmlns="http://www.w3.org/2000/svg">
<g id="Unblock IP">
<g id="08-ip address">
<path id="Vector" d="M17.7798 13.4395V21.1195" stroke="#38A7FF" stroke-width="1.47" stroke-miterlimit="10"/>
<path id="Vector_2" d="M22.4102 21.12V18.21" stroke="#38A7FF" stroke-width="1.47" stroke-miterlimit="10"/>
<path id="Vector_3" d="M26.9401 35.7295C29.7901 36.3495 31.6701 37.4195 31.6701 38.6395C31.6701 40.5595 27.0101 42.1095 21.2501 42.1095C15.4901 42.1095 10.8301 40.5595 10.8301 38.6395C10.8301 37.4195 12.7101 36.3495 15.5601 35.7295" stroke="#38A7FF" stroke-width="1.47" stroke-miterlimit="10"/>
<path id="Vector_4" d="M21.2499 4.91992C27.6399 4.91992 32.8299 10.0999 32.8299 16.4999C32.8299 19.2299 31.8799 21.7499 30.2999 23.7299L21.2599 35.1799L12.2199 23.7299C10.6299 21.7499 9.68994 19.2399 9.68994 16.4999C9.68994 10.1099 14.8699 4.91992 21.2699 4.91992H21.2499Z" stroke="#38A7FF" stroke-width="1.47" stroke-miterlimit="10"/>
<path id="Vector_5" d="M25.3002 17.6497H22.4102V14.1797H25.3002C26.2602 14.1797 27.0402 14.9597 27.0402 15.9197C27.0402 16.8797 26.2602 17.6597 25.3002 17.6597V17.6497Z" stroke="#38A7FF" stroke-width="1.47" stroke-miterlimit="10"/>
</g>
<path id="Vector_6" d="M34.3002 43.9598C39.8702 43.9598 44.3802 39.4498 44.3802 33.8798C44.3802 28.3098 39.8702 23.7998 34.3002 23.7998C28.7302 23.7998 24.2202 28.3098 24.2202 33.8798C24.2202 39.4498 28.7302 43.9598 34.3002 43.9598Z" fill="white" stroke="#FF6C2C" stroke-width="1.27" stroke-miterlimit="10"/>
<g id="g715">
<g id="g721">
<path id="path723" d="M30.9597 33.3898C30.6797 32.6298 30.4197 31.8798 30.1697 31.1198C29.7997 30.0098 30.3297 28.7998 31.3997 28.3098C31.7797 28.1398 32.1597 27.9798 32.5397 27.8398C32.9197 27.6998 33.3197 27.5698 33.7097 27.4498C34.8397 27.1198 36.0297 27.6998 36.4697 28.7798C36.7497 29.4598 37.0197 30.1498 37.2797 30.8398L35.8697 31.3598C35.6197 30.6798 35.3497 30.0098 35.0797 29.3498C34.9297 28.9798 34.5197 28.7798 34.1297 28.8998C33.7697 28.9998 33.4097 29.1198 33.0597 29.2498C32.8297 29.3298 32.6097 29.4198 32.3797 29.5198M31.7097 29.9298C31.5597 30.1298 31.5097 30.3898 31.5897 30.6398C31.8897 31.5298 32.1997 32.4198 32.5297 33.3098" stroke="#FF6C2C" stroke-width="0.44" stroke-miterlimit="10"/>
</g>
<g id="g725">
<path id="path727" d="M37.0898 40.3093C37.8098 40.2693 38.3898 39.6893 38.4398 38.9693C38.5298 37.5493 38.5298 36.1293 38.4398 34.7093C38.3898 33.9893 37.8198 33.4093 37.0898 33.3693C36.0898 33.3093 35.0798 33.2793 34.0798 33.2793C33.0798 33.2793 32.0698 33.3093 31.0698 33.3693C30.3498 33.4093 29.7698 33.9893 29.7198 34.7093C29.6298 36.1293 29.6298 37.5493 29.7198 38.9693C29.7698 39.6893 30.3398 40.2693 31.0698 40.3093C32.0698 40.3693 33.0798 40.3993 34.0798 40.3993C34.8098 40.3993 35.5498 40.3793 36.2898 40.3493" stroke="#FF6C2C" stroke-width="0.44" stroke-miterlimit="10"/>
</g>
<g id="g729">
<path id="path731" d="M35.3197 38.1295L34.7197 37.0895C35.1197 36.8595 35.3797 36.4195 35.3397 35.9195C35.2997 35.2795 34.7697 34.7695 34.1297 34.7495C33.4197 34.7295 32.8397 35.2995 32.8397 35.9995C32.8397 36.4595 33.0897 36.8695 33.4697 37.0795L32.8697 38.1195C32.6597 38.4795 32.9197 38.9295 33.3397 38.9295H34.8697C35.2797 38.9295 35.5397 38.4795 35.3397 38.1195L35.3197 38.1295Z" stroke="#FF6C2C" stroke-width="0.44" stroke-miterlimit="10"/>
</g>
<g id="g733">
<path id="path735" d="M37.9897 31.1195L38.6697 30.4395" stroke="#FF6C2C" stroke-width="0.44" stroke-miterlimit="10"/>
</g>
<g id="g737">
<path id="path739" d="M38.6697 33.47L37.9897 32.79" stroke="#FF6C2C" stroke-width="0.44" stroke-miterlimit="10"/>
</g>
<g id="g741">
<path id="path743" d="M38.25 31.9502H39.98" stroke="#FF6C2C" stroke-width="0.44" stroke-miterlimit="10"/>
</g>
</g>
</g>
</svg>
