<svg width="21" height="21" viewBox="0 0 21 21" fill="none" xmlns="http://www.w3.org/2000/svg">
<g clip-path="url(#clip0_102_8750)">
<path d="M19.995 8.52187L11.8372 8.52148C11.477 8.52148 11.185 8.81344 11.185 9.17367V11.7797C11.185 12.1399 11.477 12.4319 11.8372 12.4319H16.4311C15.9281 13.7374 14.9892 14.8307 13.7913 15.5254L15.7502 18.9164C18.8924 17.0991 20.7502 13.9105 20.7502 10.341C20.7502 9.83277 20.7127 9.46945 20.6378 9.06035C20.5808 8.74953 20.311 8.52187 19.995 8.52187Z" fill="#167EE6"/>
<path d="M10.7502 16.3468C8.50195 16.3468 6.53929 15.1185 5.48519 13.3008L2.09433 15.2552C3.81992 18.2459 7.05249 20.2599 10.7502 20.2599C12.5641 20.2599 14.2757 19.7715 15.7501 18.9204V18.9157L13.7913 15.5247C12.8953 16.0444 11.8584 16.3468 10.7502 16.3468Z" fill="#12B347"/>
<path d="M15.75 18.9211V18.9164L13.7911 15.5254C12.8951 16.045 11.8583 16.3475 10.75 16.3475V20.2606C12.5639 20.2606 14.2756 19.7722 15.75 18.9211Z" fill="#0F993E"/>
<path d="M4.66305 10.259C4.66305 9.15086 4.96547 8.1141 5.48504 7.21813L2.09418 5.26367C1.23836 6.73348 0.75 8.44043 0.75 10.259C0.75 12.0776 1.23836 13.7846 2.09418 15.2544L5.48504 13.2999C4.96547 12.4039 4.66305 11.3672 4.66305 10.259Z" fill="#FFD500"/>
<path d="M10.7502 4.17281C12.2162 4.17281 13.5628 4.69375 14.6147 5.56027C14.8742 5.77402 15.2513 5.75859 15.489 5.5209L17.3355 3.67441C17.6052 3.40473 17.586 2.96328 17.2979 2.71336C15.5356 1.18449 13.2426 0.259766 10.7502 0.259766C7.05249 0.259766 3.81992 2.27371 2.09433 5.26441L5.48519 7.21887C6.53929 5.40117 8.50195 4.17281 10.7502 4.17281Z" fill="#FF4B26"/>
<path d="M14.6145 5.56027C14.874 5.77402 15.2512 5.75859 15.4889 5.5209L17.3354 3.67441C17.605 3.40473 17.5858 2.96328 17.2977 2.71336C15.5354 1.18445 13.2425 0.259766 10.75 0.259766V4.17281C12.216 4.17281 13.5627 4.69375 14.6145 5.56027Z" fill="#D93F21"/>
</g>
<defs>
<clipPath id="clip0_102_8750">
<rect width="20" height="20" fill="white" transform="translate(0.75 0.259766)"/>
</clipPath>
</defs>
</svg>
