<?xml version="1.0" encoding="utf-8"?>
<!-- Generator: Adobe Illustrator 25.2.1, SVG Export Plug-In . SVG Version: 6.00 Build 0)  -->
<svg version="1.1" id="Layer_1" xmlns="http://www.w3.org/2000/svg" xmlns:xlink="http://www.w3.org/1999/xlink" x="0px" y="0px"
	 viewBox="0 0 30 30" style="enable-background:new 0 0 30 30;" xml:space="preserve">
<style type="text/css">
	.st0{fill:#FFFFFF;}
	.st1{fill:#B02071;}
	.st2{fill:#26A9E1;}
	.st3{fill-rule:evenodd;clip-rule:evenodd;fill:#1E4997;}
	.st4{fill-rule:evenodd;clip-rule:evenodd;fill:#26A9E1;}
	.st5{fill:#1D1D1A;}
	.st6{fill-rule:evenodd;clip-rule:evenodd;fill:#EB2127;}
	.st7{fill:#0D4624;}
	.st8{clip-path:url(#SVGID_2_);fill:#026A42;}
	.st9{clip-path:url(#SVGID_2_);fill:#026B43;}
	.st10{clip-path:url(#SVGID_2_);fill:#026C43;}
	.st11{clip-path:url(#SVGID_2_);fill:#036C43;}
	.st12{clip-path:url(#SVGID_2_);fill:#036D43;}
	.st13{clip-path:url(#SVGID_2_);fill:#036E44;}
	.st14{clip-path:url(#SVGID_2_);fill:#036F44;}
	.st15{clip-path:url(#SVGID_2_);fill:#037044;}
	.st16{clip-path:url(#SVGID_2_);fill:#037045;}
	.st17{clip-path:url(#SVGID_2_);fill:#037145;}
	.st18{clip-path:url(#SVGID_2_);fill:#037245;}
	.st19{clip-path:url(#SVGID_2_);fill:#037345;}
	.st20{clip-path:url(#SVGID_2_);fill:#037346;}
	.st21{clip-path:url(#SVGID_2_);fill:#037446;}
	.st22{clip-path:url(#SVGID_2_);fill:#037546;}
	.st23{clip-path:url(#SVGID_2_);fill:#027647;}
	.st24{clip-path:url(#SVGID_2_);fill:#027747;}
	.st25{clip-path:url(#SVGID_2_);fill:#027847;}
	.st26{clip-path:url(#SVGID_2_);fill:#027948;}
	.st27{clip-path:url(#SVGID_2_);fill:#027A48;}
	.st28{clip-path:url(#SVGID_2_);fill:#027B48;}
	.st29{clip-path:url(#SVGID_2_);fill:#027C49;}
	.st30{clip-path:url(#SVGID_2_);fill:#067D49;}
	.st31{clip-path:url(#SVGID_2_);fill:#0B7D49;}
	.st32{clip-path:url(#SVGID_2_);fill:#0F7E49;}
	.st33{clip-path:url(#SVGID_2_);fill:#127F49;}
	.st34{clip-path:url(#SVGID_2_);fill:#157F49;}
	.st35{clip-path:url(#SVGID_2_);fill:#188049;}
	.st36{clip-path:url(#SVGID_2_);fill:#1A8149;}
	.st37{clip-path:url(#SVGID_2_);fill:#1D8149;}
	.st38{clip-path:url(#SVGID_2_);fill:#1F8249;}
	.st39{clip-path:url(#SVGID_2_);fill:#218249;}
	.st40{clip-path:url(#SVGID_2_);fill:#238349;}
	.st41{clip-path:url(#SVGID_2_);fill:#248449;}
	.st42{clip-path:url(#SVGID_2_);fill:#268449;}
	.st43{clip-path:url(#SVGID_2_);fill:#288549;}
	.st44{clip-path:url(#SVGID_2_);fill:#2A8649;}
	.st45{clip-path:url(#SVGID_2_);fill:#2B8649;}
	.st46{clip-path:url(#SVGID_2_);fill:#2D8749;}
	.st47{clip-path:url(#SVGID_2_);fill:#2E8849;}
	.st48{clip-path:url(#SVGID_2_);fill:#308849;}
	.st49{clip-path:url(#SVGID_2_);fill:#318949;}
	.st50{clip-path:url(#SVGID_2_);fill:#338A49;}
	.st51{clip-path:url(#SVGID_2_);fill:#348A49;}
	.st52{clip-path:url(#SVGID_2_);fill:#358B49;}
	.st53{clip-path:url(#SVGID_2_);fill:#378C49;}
	.st54{clip-path:url(#SVGID_2_);fill:#388D49;}
	.st55{clip-path:url(#SVGID_2_);fill:#3A8D48;}
	.st56{clip-path:url(#SVGID_2_);fill:#3B8E48;}
	.st57{clip-path:url(#SVGID_2_);fill:#3C8F48;}
	.st58{clip-path:url(#SVGID_2_);fill:#3E8F48;}
	.st59{clip-path:url(#SVGID_2_);fill:#3F9048;}
	.st60{clip-path:url(#SVGID_2_);fill:#409148;}
	.st61{clip-path:url(#SVGID_2_);fill:#429148;}
	.st62{clip-path:url(#SVGID_2_);fill:#439248;}
	.st63{clip-path:url(#SVGID_2_);fill:#449348;}
	.st64{clip-path:url(#SVGID_2_);fill:#469448;}
	.st65{clip-path:url(#SVGID_2_);fill:#479448;}
	.st66{clip-path:url(#SVGID_2_);fill:#489548;}
	.st67{clip-path:url(#SVGID_2_);fill:#499648;}
	.st68{clip-path:url(#SVGID_2_);fill:#4B9648;}
	.st69{clip-path:url(#SVGID_2_);fill:#4C9748;}
	.st70{clip-path:url(#SVGID_2_);fill:#4D9848;}
	.st71{clip-path:url(#SVGID_2_);fill:#4E9948;}
	.st72{clip-path:url(#SVGID_2_);fill:#509948;}
	.st73{clip-path:url(#SVGID_2_);fill:#519A48;}
	.st74{clip-path:url(#SVGID_2_);fill:#529B47;}
	.st75{clip-path:url(#SVGID_2_);fill:#539C47;}
	.st76{clip-path:url(#SVGID_2_);fill:#549C47;}
	.st77{clip-path:url(#SVGID_2_);fill:#559D47;}
	.st78{clip-path:url(#SVGID_2_);fill:#569E47;}
	.st79{clip-path:url(#SVGID_2_);fill:#589F47;}
	.st80{clip-path:url(#SVGID_2_);fill:#599F47;}
	.st81{clip-path:url(#SVGID_2_);fill:#5AA047;}
	.st82{clip-path:url(#SVGID_2_);fill:#5BA147;}
	.st83{clip-path:url(#SVGID_2_);fill:#5CA247;}
	.st84{clip-path:url(#SVGID_2_);fill:#5DA346;}
	.st85{clip-path:url(#SVGID_2_);fill:#5EA346;}
	.st86{clip-path:url(#SVGID_2_);fill:#5FA446;}
	.st87{clip-path:url(#SVGID_2_);fill:#61A546;}
	.st88{clip-path:url(#SVGID_2_);fill:#62A646;}
	.st89{clip-path:url(#SVGID_2_);fill:#63A746;}
	.st90{clip-path:url(#SVGID_2_);fill:#64A746;}
	.st91{clip-path:url(#SVGID_2_);fill:#65A846;}
	.st92{clip-path:url(#SVGID_2_);fill:#66A946;}
	.st93{clip-path:url(#SVGID_2_);fill:#67AA45;}
	.st94{clip-path:url(#SVGID_2_);fill:#69AB45;}
	.st95{clip-path:url(#SVGID_2_);fill:#6AAB45;}
	.st96{clip-path:url(#SVGID_2_);fill:#6BAC45;}
	.st97{clip-path:url(#SVGID_2_);fill:#6CAD45;}
	.st98{clip-path:url(#SVGID_2_);fill:#6DAE45;}
	.st99{clip-path:url(#SVGID_2_);fill:#6EAF45;}
	.st100{clip-path:url(#SVGID_2_);fill:#6FB044;}
	.st101{clip-path:url(#SVGID_2_);fill:#70B144;}
	.st102{clip-path:url(#SVGID_2_);fill:#72B144;}
	.st103{clip-path:url(#SVGID_2_);fill:#73B244;}
	.st104{clip-path:url(#SVGID_2_);fill:#74B344;}
	.st105{clip-path:url(#SVGID_2_);fill:#75B444;}
	.st106{clip-path:url(#SVGID_2_);fill:#76B544;}
	.st107{clip-path:url(#SVGID_2_);fill:#77B644;}
	.st108{clip-path:url(#SVGID_2_);fill:#79B743;}
	.st109{clip-path:url(#SVGID_2_);fill:#7AB843;}
	.st110{clip-path:url(#SVGID_2_);fill:#7BB943;}
	.st111{clip-path:url(#SVGID_2_);fill:#7CBA43;}
	.st112{clip-path:url(#SVGID_2_);fill:#7DBB43;}
	.st113{clip-path:url(#SVGID_2_);fill:#7EBC43;}
	.st114{clip-path:url(#SVGID_2_);fill:#80BD43;}
	.st115{clip-path:url(#SVGID_2_);fill:#81BF42;}
	.st116{clip-path:url(#SVGID_2_);fill:#82C042;}
	.st117{clip-path:url(#SVGID_2_);fill:#83C142;}
	.st118{clip-path:url(#SVGID_2_);fill:#84C342;}
	.st119{clip-path:url(#SVGID_2_);fill:#86C442;}
	.st120{clip-path:url(#SVGID_4_);fill:#026A42;}
	.st121{clip-path:url(#SVGID_4_);fill:#026B43;}
	.st122{clip-path:url(#SVGID_4_);fill:#026C43;}
	.st123{clip-path:url(#SVGID_4_);fill:#036C43;}
	.st124{clip-path:url(#SVGID_4_);fill:#036D43;}
	.st125{clip-path:url(#SVGID_4_);fill:#036E44;}
	.st126{clip-path:url(#SVGID_4_);fill:#036F44;}
	.st127{clip-path:url(#SVGID_4_);fill:#037044;}
	.st128{clip-path:url(#SVGID_4_);fill:#037045;}
	.st129{clip-path:url(#SVGID_4_);fill:#037145;}
	.st130{clip-path:url(#SVGID_4_);fill:#037245;}
	.st131{clip-path:url(#SVGID_4_);fill:#037345;}
	.st132{clip-path:url(#SVGID_4_);fill:#037346;}
	.st133{clip-path:url(#SVGID_4_);fill:#037446;}
	.st134{clip-path:url(#SVGID_4_);fill:#037546;}
	.st135{clip-path:url(#SVGID_4_);fill:#027647;}
	.st136{clip-path:url(#SVGID_4_);fill:#027747;}
	.st137{clip-path:url(#SVGID_4_);fill:#027847;}
	.st138{clip-path:url(#SVGID_4_);fill:#027948;}
	.st139{clip-path:url(#SVGID_4_);fill:#027A48;}
	.st140{clip-path:url(#SVGID_4_);fill:#027B48;}
	.st141{clip-path:url(#SVGID_4_);fill:#027C49;}
	.st142{clip-path:url(#SVGID_4_);fill:#067D49;}
	.st143{clip-path:url(#SVGID_4_);fill:#0B7D49;}
	.st144{clip-path:url(#SVGID_4_);fill:#0F7E49;}
	.st145{clip-path:url(#SVGID_4_);fill:#127F49;}
	.st146{clip-path:url(#SVGID_4_);fill:#157F49;}
	.st147{clip-path:url(#SVGID_4_);fill:#188049;}
	.st148{clip-path:url(#SVGID_4_);fill:#1A8149;}
	.st149{clip-path:url(#SVGID_4_);fill:#1D8149;}
	.st150{clip-path:url(#SVGID_4_);fill:#1F8249;}
	.st151{clip-path:url(#SVGID_4_);fill:#218249;}
	.st152{clip-path:url(#SVGID_4_);fill:#238349;}
	.st153{clip-path:url(#SVGID_4_);fill:#248449;}
	.st154{clip-path:url(#SVGID_4_);fill:#268449;}
	.st155{clip-path:url(#SVGID_4_);fill:#288549;}
	.st156{clip-path:url(#SVGID_4_);fill:#2A8649;}
	.st157{clip-path:url(#SVGID_4_);fill:#2B8649;}
	.st158{clip-path:url(#SVGID_4_);fill:#2D8749;}
	.st159{clip-path:url(#SVGID_4_);fill:#2E8849;}
	.st160{clip-path:url(#SVGID_4_);fill:#308849;}
	.st161{clip-path:url(#SVGID_4_);fill:#318949;}
	.st162{clip-path:url(#SVGID_4_);fill:#338A49;}
	.st163{clip-path:url(#SVGID_4_);fill:#348A49;}
	.st164{clip-path:url(#SVGID_4_);fill:#358B49;}
	.st165{clip-path:url(#SVGID_4_);fill:#378C49;}
	.st166{clip-path:url(#SVGID_4_);fill:#388D49;}
	.st167{clip-path:url(#SVGID_4_);fill:#3A8D48;}
	.st168{clip-path:url(#SVGID_4_);fill:#3B8E48;}
	.st169{clip-path:url(#SVGID_4_);fill:#3C8F48;}
	.st170{clip-path:url(#SVGID_4_);fill:#3E8F48;}
	.st171{clip-path:url(#SVGID_4_);fill:#3F9048;}
	.st172{clip-path:url(#SVGID_4_);fill:#409148;}
	.st173{clip-path:url(#SVGID_4_);fill:#429148;}
	.st174{clip-path:url(#SVGID_4_);fill:#439248;}
	.st175{clip-path:url(#SVGID_4_);fill:#449348;}
	.st176{clip-path:url(#SVGID_4_);fill:#469448;}
	.st177{clip-path:url(#SVGID_4_);fill:#479448;}
	.st178{clip-path:url(#SVGID_4_);fill:#489548;}
	.st179{clip-path:url(#SVGID_4_);fill:#499648;}
	.st180{clip-path:url(#SVGID_4_);fill:#4B9648;}
	.st181{clip-path:url(#SVGID_4_);fill:#4C9748;}
	.st182{clip-path:url(#SVGID_4_);fill:#4D9848;}
	.st183{clip-path:url(#SVGID_4_);fill:#4E9948;}
	.st184{clip-path:url(#SVGID_4_);fill:#509948;}
	.st185{clip-path:url(#SVGID_4_);fill:#519A48;}
	.st186{clip-path:url(#SVGID_4_);fill:#529B47;}
	.st187{clip-path:url(#SVGID_4_);fill:#539C47;}
	.st188{clip-path:url(#SVGID_4_);fill:#549C47;}
	.st189{clip-path:url(#SVGID_4_);fill:#559D47;}
	.st190{clip-path:url(#SVGID_4_);fill:#569E47;}
	.st191{clip-path:url(#SVGID_4_);fill:#589F47;}
	.st192{clip-path:url(#SVGID_4_);fill:#599F47;}
	.st193{clip-path:url(#SVGID_4_);fill:#5AA047;}
	.st194{clip-path:url(#SVGID_4_);fill:#5BA147;}
	.st195{clip-path:url(#SVGID_4_);fill:#5CA247;}
	.st196{clip-path:url(#SVGID_4_);fill:#5DA346;}
	.st197{clip-path:url(#SVGID_4_);fill:#5EA346;}
	.st198{clip-path:url(#SVGID_4_);fill:#5FA446;}
	.st199{clip-path:url(#SVGID_4_);fill:#61A546;}
	.st200{clip-path:url(#SVGID_4_);fill:#62A646;}
	.st201{clip-path:url(#SVGID_4_);fill:#63A746;}
	.st202{clip-path:url(#SVGID_4_);fill:#64A746;}
	.st203{clip-path:url(#SVGID_4_);fill:#65A846;}
	.st204{clip-path:url(#SVGID_4_);fill:#66A946;}
	.st205{clip-path:url(#SVGID_4_);fill:#67AA45;}
	.st206{clip-path:url(#SVGID_4_);fill:#69AB45;}
	.st207{clip-path:url(#SVGID_4_);fill:#6AAB45;}
	.st208{clip-path:url(#SVGID_4_);fill:#6BAC45;}
	.st209{clip-path:url(#SVGID_4_);fill:#6CAD45;}
	.st210{clip-path:url(#SVGID_4_);fill:#6DAE45;}
	.st211{clip-path:url(#SVGID_4_);fill:#6EAF45;}
	.st212{clip-path:url(#SVGID_4_);fill:#6FB044;}
	.st213{clip-path:url(#SVGID_4_);fill:#70B144;}
	.st214{clip-path:url(#SVGID_4_);fill:#72B144;}
	.st215{clip-path:url(#SVGID_4_);fill:#73B244;}
	.st216{clip-path:url(#SVGID_4_);fill:#74B344;}
	.st217{clip-path:url(#SVGID_4_);fill:#75B444;}
	.st218{clip-path:url(#SVGID_4_);fill:#76B544;}
	.st219{clip-path:url(#SVGID_4_);fill:#77B644;}
	.st220{clip-path:url(#SVGID_4_);fill:#79B743;}
	.st221{clip-path:url(#SVGID_4_);fill:#7AB843;}
	.st222{clip-path:url(#SVGID_4_);fill:#7BB943;}
	.st223{clip-path:url(#SVGID_4_);fill:#7CBA43;}
	.st224{clip-path:url(#SVGID_4_);fill:#7DBB43;}
	.st225{clip-path:url(#SVGID_4_);fill:#7EBC43;}
	.st226{clip-path:url(#SVGID_4_);fill:#80BD43;}
	.st227{clip-path:url(#SVGID_4_);fill:#81BF42;}
	.st228{clip-path:url(#SVGID_4_);fill:#82C042;}
	.st229{clip-path:url(#SVGID_4_);fill:#83C142;}
	.st230{clip-path:url(#SVGID_4_);fill:#84C342;}
	.st231{clip-path:url(#SVGID_4_);fill:#86C442;}
	.st232{fill:#068547;}
	.st233{fill-rule:evenodd;clip-rule:evenodd;fill:#E9262A;}
	.st234{fill:#394A9F;}
	.st235{fill:#EA304C;}
</style>
<g>
	<g>
		<path class="st0" d="M25.91,29.88l-21.82,0c-2.18,0-3.97-1.79-3.97-3.97l0-21.82c0-2.18,1.79-3.97,3.97-3.97l21.82,0
			c2.18,0,3.97,1.79,3.97,3.97l0,21.82C29.87,28.09,28.09,29.88,25.91,29.88z"/>
		<path class="st234" d="M0.14,26.97C0.05,26.62,0,26.27,0,25.91L0,4.09C0,1.84,1.84,0,4.09,0l21.82,0C28.16,0,30,1.84,30,4.09
			l0,21.82c0,2.26-1.84,4.09-4.09,4.09L4.09,30C3,30,1.98,29.57,1.2,28.8C0.68,28.28,0.32,27.65,0.14,26.97z M29.62,3.1
			c-0.44-1.64-1.94-2.85-3.71-2.85l-21.82,0c-2.12,0-3.84,1.72-3.84,3.84l0,21.82c0,1.02,0.4,1.99,1.13,2.71
			c0.73,0.73,1.69,1.13,2.71,1.13l21.82,0c2.12,0,3.84-1.72,3.84-3.84l0-21.82C29.75,3.75,29.71,3.42,29.62,3.1z"/>
	</g>
	<g>
		<g>
			<g>
				<g>
					<path class="st235" d="M8.86,14.85c-0.25,0-0.62-0.25-0.62-0.52l0.15-2.1c0-0.26,0.2-0.47,0.45-0.47l0,0
						c0.25,0,0.45,0.21,0.45,0.47l0.16,2.12C9.44,14.62,9.11,14.85,8.86,14.85L8.86,14.85z"/>
				</g>
				<g>
					<path class="st235" d="M7.52,13.41c-0.08,0.24-0.43,0.51-0.69,0.43l-1.95-0.8c-0.25-0.08-0.39-0.34-0.31-0.57l0,0
						c0.08-0.24,0.34-0.36,0.59-0.28l2.06,0.51C7.48,12.78,7.6,13.17,7.52,13.41L7.52,13.41z"/>
				</g>
				<g>
					<path class="st235" d="M5.73,14.26c0.2,0.15,0.36,0.57,0.2,0.78l-1.35,1.62c-0.15,0.21-0.44,0.27-0.64,0.12l0,0
						c-0.2-0.15-0.24-0.43-0.09-0.65l1.11-1.81C5.12,14.1,5.53,14.11,5.73,14.26L5.73,14.26z"/>
				</g>
				<g>
					<path class="st235" d="M5.97,16.22c0.2-0.15,0.65-0.16,0.8,0.05l1.11,1.79c0.15,0.21,0.11,0.5-0.08,0.65l0,0
						c-0.2,0.15-0.49,0.09-0.64-0.12l-1.37-1.62C5.64,16.75,5.77,16.36,5.97,16.22L5.97,16.22z"/>
				</g>
				<g>
					<path class="st235" d="M7.9,16.57c-0.07-0.24,0.06-0.67,0.31-0.74l2.05-0.48c0.25-0.08,0.51,0.05,0.59,0.29l0,0
						c0.07,0.24-0.07,0.49-0.32,0.57l-1.98,0.78C8.3,17.06,7.97,16.8,7.9,16.57L7.9,16.57z"/>
				</g>
				<g>
					<path class="st235" d="M8.87,20.12c-0.25,0-0.62-0.23-0.62-0.47l0.14-1.95c0-0.24,0.2-0.44,0.44-0.44l0,0
						c0.25,0,0.45,0.19,0.45,0.43l0.17,1.96C9.46,19.9,9.12,20.12,8.87,20.12L8.87,20.12z"/>
				</g>
				<g>
					<path class="st235" d="M12.56,15.04c-0.08,0.24-0.4,0.52-0.64,0.45l-1.81-0.72c-0.23-0.07-0.36-0.32-0.29-0.55l0,0
						c0.08-0.24,0.32-0.37,0.55-0.3l1.92,0.44C12.52,14.42,12.63,14.81,12.56,15.04L12.56,15.04z"/>
				</g>
				<g>
					<path class="st235" d="M8.92,10.01c0.2,0.15,0.34,0.57,0.19,0.76L7.78,12.2c-0.15,0.19-0.43,0.22-0.62,0.06l0,0
						c-0.19-0.15-0.22-0.43-0.07-0.62l1.1-1.63C8.33,9.82,8.73,9.86,8.92,10.01L8.92,10.01z"/>
				</g>
				<g>
					<path class="st235" d="M2.86,11.97c0.2-0.15,0.63-0.19,0.78,0.01l1.05,1.64c0.14,0.19,0.11,0.47-0.09,0.62l0,0
						c-0.2,0.15-0.47,0.11-0.62-0.09l-1.3-1.47C2.52,12.49,2.66,12.11,2.86,11.97L2.86,11.97z"/>
				</g>
				<g>
					<path class="st235" d="M2.87,18.24c-0.08-0.24,0.02-0.66,0.25-0.74l1.89-0.48c0.23-0.08,0.48,0.05,0.56,0.28l0,0
						c0.08,0.24-0.04,0.48-0.28,0.56l-1.81,0.78C3.26,18.72,2.95,18.47,2.87,18.24L2.87,18.24z"/>
				</g>
			</g>
		</g>
		<g>
			<path class="st234" d="M14.13,18.17c0,0,0.43-6.08,0.53-6.37l1.48,0l1.53,3.3l1.63-3.34l1.43,0c0,0,0.53,6.06,0.5,6.42l-1.48,0
				l-0.16-3.8l-1.31,3.03l-1,0l-1.41-3.06l-0.24,3.87L14.13,18.17z"/>
		</g>
		<g>
			<path class="st234" d="M27.37,15.75c0,0-0.31-0.84-0.81-1.08c0,0,0.72-0.5,0.53-1.57s-1.53-1.36-2.36-1.36
				c-0.84,0-2.53,0.05-2.53,0.05l0,6.38c0,0,2.65,0.19,3.18,0.07C25.89,18.12,27.62,18.07,27.37,15.75z M23.7,12.95
				c0,0,1.8-0.27,1.86,0.49c0.07,0.76-0.65,0.77-0.65,0.77l-1.21,0L23.7,12.95z M25.06,16.87l-1.34,0l0-1.4c0,0,2-0.3,2.07,0.55
				C25.85,16.87,25.06,16.87,25.06,16.87z"/>
		</g>
	</g>
</g>
</svg>
