<?xml version="1.0" encoding="utf-8"?>
<!-- Generator: Adobe Illustrator 25.2.1, SVG Export Plug-In . SVG Version: 6.00 Build 0)  -->
<svg version="1.1" id="Layer_1" xmlns="http://www.w3.org/2000/svg" xmlns:xlink="http://www.w3.org/1999/xlink" x="0px" y="0px"
	 viewBox="0 0 30 30" style="enable-background:new 0 0 30 30;" xml:space="preserve">
<style type="text/css">
	.st0{fill:#FFFFFF;}
	.st1{fill:#B02071;}
	.st2{fill:#26A9E1;}
	.st3{fill-rule:evenodd;clip-rule:evenodd;fill:#1E4997;}
	.st4{fill-rule:evenodd;clip-rule:evenodd;fill:#26A9E1;}
	.st5{fill:#1D1D1A;}
	.st6{fill-rule:evenodd;clip-rule:evenodd;fill:#EB2127;}
	.st7{fill:#0D4624;}
	.st8{clip-path:url(#SVGID_2_);fill:#026A42;}
	.st9{clip-path:url(#SVGID_2_);fill:#026B43;}
	.st10{clip-path:url(#SVGID_2_);fill:#026C43;}
	.st11{clip-path:url(#SVGID_2_);fill:#036C43;}
	.st12{clip-path:url(#SVGID_2_);fill:#036D43;}
	.st13{clip-path:url(#SVGID_2_);fill:#036E44;}
	.st14{clip-path:url(#SVGID_2_);fill:#036F44;}
	.st15{clip-path:url(#SVGID_2_);fill:#037044;}
	.st16{clip-path:url(#SVGID_2_);fill:#037045;}
	.st17{clip-path:url(#SVGID_2_);fill:#037145;}
	.st18{clip-path:url(#SVGID_2_);fill:#037245;}
	.st19{clip-path:url(#SVGID_2_);fill:#037345;}
	.st20{clip-path:url(#SVGID_2_);fill:#037346;}
	.st21{clip-path:url(#SVGID_2_);fill:#037446;}
	.st22{clip-path:url(#SVGID_2_);fill:#037546;}
	.st23{clip-path:url(#SVGID_2_);fill:#027647;}
	.st24{clip-path:url(#SVGID_2_);fill:#027747;}
	.st25{clip-path:url(#SVGID_2_);fill:#027847;}
	.st26{clip-path:url(#SVGID_2_);fill:#027948;}
	.st27{clip-path:url(#SVGID_2_);fill:#027A48;}
	.st28{clip-path:url(#SVGID_2_);fill:#027B48;}
	.st29{clip-path:url(#SVGID_2_);fill:#027C49;}
	.st30{clip-path:url(#SVGID_2_);fill:#067D49;}
	.st31{clip-path:url(#SVGID_2_);fill:#0B7D49;}
	.st32{clip-path:url(#SVGID_2_);fill:#0F7E49;}
	.st33{clip-path:url(#SVGID_2_);fill:#127F49;}
	.st34{clip-path:url(#SVGID_2_);fill:#157F49;}
	.st35{clip-path:url(#SVGID_2_);fill:#188049;}
	.st36{clip-path:url(#SVGID_2_);fill:#1A8149;}
	.st37{clip-path:url(#SVGID_2_);fill:#1D8149;}
	.st38{clip-path:url(#SVGID_2_);fill:#1F8249;}
	.st39{clip-path:url(#SVGID_2_);fill:#218249;}
	.st40{clip-path:url(#SVGID_2_);fill:#238349;}
	.st41{clip-path:url(#SVGID_2_);fill:#248449;}
	.st42{clip-path:url(#SVGID_2_);fill:#268449;}
	.st43{clip-path:url(#SVGID_2_);fill:#288549;}
	.st44{clip-path:url(#SVGID_2_);fill:#2A8649;}
	.st45{clip-path:url(#SVGID_2_);fill:#2B8649;}
	.st46{clip-path:url(#SVGID_2_);fill:#2D8749;}
	.st47{clip-path:url(#SVGID_2_);fill:#2E8849;}
	.st48{clip-path:url(#SVGID_2_);fill:#308849;}
	.st49{clip-path:url(#SVGID_2_);fill:#318949;}
	.st50{clip-path:url(#SVGID_2_);fill:#338A49;}
	.st51{clip-path:url(#SVGID_2_);fill:#348A49;}
	.st52{clip-path:url(#SVGID_2_);fill:#358B49;}
	.st53{clip-path:url(#SVGID_2_);fill:#378C49;}
	.st54{clip-path:url(#SVGID_2_);fill:#388D49;}
	.st55{clip-path:url(#SVGID_2_);fill:#3A8D48;}
	.st56{clip-path:url(#SVGID_2_);fill:#3B8E48;}
	.st57{clip-path:url(#SVGID_2_);fill:#3C8F48;}
	.st58{clip-path:url(#SVGID_2_);fill:#3E8F48;}
	.st59{clip-path:url(#SVGID_2_);fill:#3F9048;}
	.st60{clip-path:url(#SVGID_2_);fill:#409148;}
	.st61{clip-path:url(#SVGID_2_);fill:#429148;}
	.st62{clip-path:url(#SVGID_2_);fill:#439248;}
	.st63{clip-path:url(#SVGID_2_);fill:#449348;}
	.st64{clip-path:url(#SVGID_2_);fill:#469448;}
	.st65{clip-path:url(#SVGID_2_);fill:#479448;}
	.st66{clip-path:url(#SVGID_2_);fill:#489548;}
	.st67{clip-path:url(#SVGID_2_);fill:#499648;}
	.st68{clip-path:url(#SVGID_2_);fill:#4B9648;}
	.st69{clip-path:url(#SVGID_2_);fill:#4C9748;}
	.st70{clip-path:url(#SVGID_2_);fill:#4D9848;}
	.st71{clip-path:url(#SVGID_2_);fill:#4E9948;}
	.st72{clip-path:url(#SVGID_2_);fill:#509948;}
	.st73{clip-path:url(#SVGID_2_);fill:#519A48;}
	.st74{clip-path:url(#SVGID_2_);fill:#529B47;}
	.st75{clip-path:url(#SVGID_2_);fill:#539C47;}
	.st76{clip-path:url(#SVGID_2_);fill:#549C47;}
	.st77{clip-path:url(#SVGID_2_);fill:#559D47;}
	.st78{clip-path:url(#SVGID_2_);fill:#569E47;}
	.st79{clip-path:url(#SVGID_2_);fill:#589F47;}
	.st80{clip-path:url(#SVGID_2_);fill:#599F47;}
	.st81{clip-path:url(#SVGID_2_);fill:#5AA047;}
	.st82{clip-path:url(#SVGID_2_);fill:#5BA147;}
	.st83{clip-path:url(#SVGID_2_);fill:#5CA247;}
	.st84{clip-path:url(#SVGID_2_);fill:#5DA346;}
	.st85{clip-path:url(#SVGID_2_);fill:#5EA346;}
	.st86{clip-path:url(#SVGID_2_);fill:#5FA446;}
	.st87{clip-path:url(#SVGID_2_);fill:#61A546;}
	.st88{clip-path:url(#SVGID_2_);fill:#62A646;}
	.st89{clip-path:url(#SVGID_2_);fill:#63A746;}
	.st90{clip-path:url(#SVGID_2_);fill:#64A746;}
	.st91{clip-path:url(#SVGID_2_);fill:#65A846;}
	.st92{clip-path:url(#SVGID_2_);fill:#66A946;}
	.st93{clip-path:url(#SVGID_2_);fill:#67AA45;}
	.st94{clip-path:url(#SVGID_2_);fill:#69AB45;}
	.st95{clip-path:url(#SVGID_2_);fill:#6AAB45;}
	.st96{clip-path:url(#SVGID_2_);fill:#6BAC45;}
	.st97{clip-path:url(#SVGID_2_);fill:#6CAD45;}
	.st98{clip-path:url(#SVGID_2_);fill:#6DAE45;}
	.st99{clip-path:url(#SVGID_2_);fill:#6EAF45;}
	.st100{clip-path:url(#SVGID_2_);fill:#6FB044;}
	.st101{clip-path:url(#SVGID_2_);fill:#70B144;}
	.st102{clip-path:url(#SVGID_2_);fill:#72B144;}
	.st103{clip-path:url(#SVGID_2_);fill:#73B244;}
	.st104{clip-path:url(#SVGID_2_);fill:#74B344;}
	.st105{clip-path:url(#SVGID_2_);fill:#75B444;}
	.st106{clip-path:url(#SVGID_2_);fill:#76B544;}
	.st107{clip-path:url(#SVGID_2_);fill:#77B644;}
	.st108{clip-path:url(#SVGID_2_);fill:#79B743;}
	.st109{clip-path:url(#SVGID_2_);fill:#7AB843;}
	.st110{clip-path:url(#SVGID_2_);fill:#7BB943;}
	.st111{clip-path:url(#SVGID_2_);fill:#7CBA43;}
	.st112{clip-path:url(#SVGID_2_);fill:#7DBB43;}
	.st113{clip-path:url(#SVGID_2_);fill:#7EBC43;}
	.st114{clip-path:url(#SVGID_2_);fill:#80BD43;}
	.st115{clip-path:url(#SVGID_2_);fill:#81BF42;}
	.st116{clip-path:url(#SVGID_2_);fill:#82C042;}
	.st117{clip-path:url(#SVGID_2_);fill:#83C142;}
	.st118{clip-path:url(#SVGID_2_);fill:#84C342;}
	.st119{clip-path:url(#SVGID_2_);fill:#86C442;}
	.st120{clip-path:url(#SVGID_4_);fill:#026A42;}
	.st121{clip-path:url(#SVGID_4_);fill:#026B43;}
	.st122{clip-path:url(#SVGID_4_);fill:#026C43;}
	.st123{clip-path:url(#SVGID_4_);fill:#036C43;}
	.st124{clip-path:url(#SVGID_4_);fill:#036D43;}
	.st125{clip-path:url(#SVGID_4_);fill:#036E44;}
	.st126{clip-path:url(#SVGID_4_);fill:#036F44;}
	.st127{clip-path:url(#SVGID_4_);fill:#037044;}
	.st128{clip-path:url(#SVGID_4_);fill:#037045;}
	.st129{clip-path:url(#SVGID_4_);fill:#037145;}
	.st130{clip-path:url(#SVGID_4_);fill:#037245;}
	.st131{clip-path:url(#SVGID_4_);fill:#037345;}
	.st132{clip-path:url(#SVGID_4_);fill:#037346;}
	.st133{clip-path:url(#SVGID_4_);fill:#037446;}
	.st134{clip-path:url(#SVGID_4_);fill:#037546;}
	.st135{clip-path:url(#SVGID_4_);fill:#027647;}
	.st136{clip-path:url(#SVGID_4_);fill:#027747;}
	.st137{clip-path:url(#SVGID_4_);fill:#027847;}
	.st138{clip-path:url(#SVGID_4_);fill:#027948;}
	.st139{clip-path:url(#SVGID_4_);fill:#027A48;}
	.st140{clip-path:url(#SVGID_4_);fill:#027B48;}
	.st141{clip-path:url(#SVGID_4_);fill:#027C49;}
	.st142{clip-path:url(#SVGID_4_);fill:#067D49;}
	.st143{clip-path:url(#SVGID_4_);fill:#0B7D49;}
	.st144{clip-path:url(#SVGID_4_);fill:#0F7E49;}
	.st145{clip-path:url(#SVGID_4_);fill:#127F49;}
	.st146{clip-path:url(#SVGID_4_);fill:#157F49;}
	.st147{clip-path:url(#SVGID_4_);fill:#188049;}
	.st148{clip-path:url(#SVGID_4_);fill:#1A8149;}
	.st149{clip-path:url(#SVGID_4_);fill:#1D8149;}
	.st150{clip-path:url(#SVGID_4_);fill:#1F8249;}
	.st151{clip-path:url(#SVGID_4_);fill:#218249;}
	.st152{clip-path:url(#SVGID_4_);fill:#238349;}
	.st153{clip-path:url(#SVGID_4_);fill:#248449;}
	.st154{clip-path:url(#SVGID_4_);fill:#268449;}
	.st155{clip-path:url(#SVGID_4_);fill:#288549;}
	.st156{clip-path:url(#SVGID_4_);fill:#2A8649;}
	.st157{clip-path:url(#SVGID_4_);fill:#2B8649;}
	.st158{clip-path:url(#SVGID_4_);fill:#2D8749;}
	.st159{clip-path:url(#SVGID_4_);fill:#2E8849;}
	.st160{clip-path:url(#SVGID_4_);fill:#308849;}
	.st161{clip-path:url(#SVGID_4_);fill:#318949;}
	.st162{clip-path:url(#SVGID_4_);fill:#338A49;}
	.st163{clip-path:url(#SVGID_4_);fill:#348A49;}
	.st164{clip-path:url(#SVGID_4_);fill:#358B49;}
	.st165{clip-path:url(#SVGID_4_);fill:#378C49;}
	.st166{clip-path:url(#SVGID_4_);fill:#388D49;}
	.st167{clip-path:url(#SVGID_4_);fill:#3A8D48;}
	.st168{clip-path:url(#SVGID_4_);fill:#3B8E48;}
	.st169{clip-path:url(#SVGID_4_);fill:#3C8F48;}
	.st170{clip-path:url(#SVGID_4_);fill:#3E8F48;}
	.st171{clip-path:url(#SVGID_4_);fill:#3F9048;}
	.st172{clip-path:url(#SVGID_4_);fill:#409148;}
	.st173{clip-path:url(#SVGID_4_);fill:#429148;}
	.st174{clip-path:url(#SVGID_4_);fill:#439248;}
	.st175{clip-path:url(#SVGID_4_);fill:#449348;}
	.st176{clip-path:url(#SVGID_4_);fill:#469448;}
	.st177{clip-path:url(#SVGID_4_);fill:#479448;}
	.st178{clip-path:url(#SVGID_4_);fill:#489548;}
	.st179{clip-path:url(#SVGID_4_);fill:#499648;}
	.st180{clip-path:url(#SVGID_4_);fill:#4B9648;}
	.st181{clip-path:url(#SVGID_4_);fill:#4C9748;}
	.st182{clip-path:url(#SVGID_4_);fill:#4D9848;}
	.st183{clip-path:url(#SVGID_4_);fill:#4E9948;}
	.st184{clip-path:url(#SVGID_4_);fill:#509948;}
	.st185{clip-path:url(#SVGID_4_);fill:#519A48;}
	.st186{clip-path:url(#SVGID_4_);fill:#529B47;}
	.st187{clip-path:url(#SVGID_4_);fill:#539C47;}
	.st188{clip-path:url(#SVGID_4_);fill:#549C47;}
	.st189{clip-path:url(#SVGID_4_);fill:#559D47;}
	.st190{clip-path:url(#SVGID_4_);fill:#569E47;}
	.st191{clip-path:url(#SVGID_4_);fill:#589F47;}
	.st192{clip-path:url(#SVGID_4_);fill:#599F47;}
	.st193{clip-path:url(#SVGID_4_);fill:#5AA047;}
	.st194{clip-path:url(#SVGID_4_);fill:#5BA147;}
	.st195{clip-path:url(#SVGID_4_);fill:#5CA247;}
	.st196{clip-path:url(#SVGID_4_);fill:#5DA346;}
	.st197{clip-path:url(#SVGID_4_);fill:#5EA346;}
	.st198{clip-path:url(#SVGID_4_);fill:#5FA446;}
	.st199{clip-path:url(#SVGID_4_);fill:#61A546;}
	.st200{clip-path:url(#SVGID_4_);fill:#62A646;}
	.st201{clip-path:url(#SVGID_4_);fill:#63A746;}
	.st202{clip-path:url(#SVGID_4_);fill:#64A746;}
	.st203{clip-path:url(#SVGID_4_);fill:#65A846;}
	.st204{clip-path:url(#SVGID_4_);fill:#66A946;}
	.st205{clip-path:url(#SVGID_4_);fill:#67AA45;}
	.st206{clip-path:url(#SVGID_4_);fill:#69AB45;}
	.st207{clip-path:url(#SVGID_4_);fill:#6AAB45;}
	.st208{clip-path:url(#SVGID_4_);fill:#6BAC45;}
	.st209{clip-path:url(#SVGID_4_);fill:#6CAD45;}
	.st210{clip-path:url(#SVGID_4_);fill:#6DAE45;}
	.st211{clip-path:url(#SVGID_4_);fill:#6EAF45;}
	.st212{clip-path:url(#SVGID_4_);fill:#6FB044;}
	.st213{clip-path:url(#SVGID_4_);fill:#70B144;}
	.st214{clip-path:url(#SVGID_4_);fill:#72B144;}
	.st215{clip-path:url(#SVGID_4_);fill:#73B244;}
	.st216{clip-path:url(#SVGID_4_);fill:#74B344;}
	.st217{clip-path:url(#SVGID_4_);fill:#75B444;}
	.st218{clip-path:url(#SVGID_4_);fill:#76B544;}
	.st219{clip-path:url(#SVGID_4_);fill:#77B644;}
	.st220{clip-path:url(#SVGID_4_);fill:#79B743;}
	.st221{clip-path:url(#SVGID_4_);fill:#7AB843;}
	.st222{clip-path:url(#SVGID_4_);fill:#7BB943;}
	.st223{clip-path:url(#SVGID_4_);fill:#7CBA43;}
	.st224{clip-path:url(#SVGID_4_);fill:#7DBB43;}
	.st225{clip-path:url(#SVGID_4_);fill:#7EBC43;}
	.st226{clip-path:url(#SVGID_4_);fill:#80BD43;}
	.st227{clip-path:url(#SVGID_4_);fill:#81BF42;}
	.st228{clip-path:url(#SVGID_4_);fill:#82C042;}
	.st229{clip-path:url(#SVGID_4_);fill:#83C142;}
	.st230{clip-path:url(#SVGID_4_);fill:#84C342;}
	.st231{clip-path:url(#SVGID_4_);fill:#86C442;}
	.st232{fill:#068547;}
	.st233{fill-rule:evenodd;clip-rule:evenodd;fill:#E9262A;}
	.st234{fill:#394A9F;}
	.st235{fill:#EA304C;}
</style>
<g>
	<g>
		<path class="st0" d="M25.91,29.88H4.09c-2.18,0-3.97-1.79-3.97-3.97V4.09c0-2.18,1.79-3.97,3.97-3.97h21.82
			c2.18,0,3.97,1.79,3.97,3.97v21.82C29.88,28.09,28.09,29.88,25.91,29.88z"/>
		<path class="st1" d="M25.91,30H4.09C1.84,30,0,28.16,0,25.91V4.09C0,1.84,1.84,0,4.09,0h21.82C28.16,0,30,1.84,30,4.09v21.82
			C30,28.16,28.16,30,25.91,30z M4.09,0.25c-2.12,0-3.84,1.72-3.84,3.84v21.82c0,2.12,1.72,3.84,3.84,3.84h21.82
			c2.12,0,3.84-1.72,3.84-3.84V4.09c0-2.12-1.72-3.84-3.84-3.84H4.09z"/>
	</g>
	<g>
		<g>
			<path class="st1" d="M2.61,20.01c0.03-0.19,0.03-0.39,0.06-0.59c0.28-1.69,1.67-3.03,3.36-3.26c1.03-0.14,1.97,0.09,2.83,0.67
				c0.08,0.05,0.14,0.06,0.22,0c0.7-0.49,1.48-0.73,2.33-0.71c2.02,0.04,3.6,1.53,3.87,3.39c0.03,0.24,0.05,0.47,0.05,0.71
				c0,2.09,0,4.19,0,6.28c0,0.07,0,0.14,0,0.21c-1.03,0-2.05,0-3.07,0c0-0.07,0-0.15,0-0.22c0-2.14,0-4.29,0-6.43
				c0-0.57-0.54-0.98-1.09-0.83c-0.4,0.1-0.65,0.44-0.65,0.87c0,1.58,0,3.15,0,4.73c0,0.63,0,1.26,0,1.89c-1.02,0-2.03,0-3.04,0
				c-0.03-0.07-0.02-0.15-0.02-0.22c0-2.1,0-4.2,0-6.3c0-0.07,0-0.15,0-0.22c-0.03-0.39-0.39-0.75-0.78-0.77
				c-0.55-0.03-0.95,0.35-0.95,0.9c0,2.14,0,4.27,0,6.41c0,0.07,0,0.14,0,0.21c-0.99,0-1.98,0-2.97,0c-0.09,0-0.11-0.02-0.11-0.11
				C2.61,24.41,2.61,22.21,2.61,20.01z"/>
		</g>
		<g>
			<path class="st1" d="M2.61,7.19c0.03-0.25,0.04-0.5,0.09-0.74c0.33-1.58,1.62-2.84,3.21-3.1C6.98,3.17,7.97,3.39,8.86,4
				c0.08,0.05,0.13,0.06,0.21,0c0.75-0.53,1.6-0.76,2.51-0.71c0.88,0.05,1.67,0.37,2.34,0.94c0.78,0.67,1.23,1.53,1.37,2.55
				c0.02,0.16,0.03,0.33,0.03,0.49c0,2.13,0,4.25,0,6.38c0,0.21,0,0.21-0.21,0.21c-0.9,0-1.79,0-2.69,0c-0.18,0-0.18,0-0.18-0.19
				c0-2.14,0-4.28,0-6.42c0-0.49-0.28-0.82-0.76-0.9c-0.47-0.08-0.95,0.31-0.98,0.78c0,0.07,0,0.14,0,0.21c0,2.08,0,4.17,0,6.25
				c0,0.04,0,0.09,0,0.13c0,0.09-0.03,0.14-0.13,0.13c-0.02,0-0.03,0-0.05,0c-0.9,0-1.8,0-2.7,0c-0.19,0-0.19,0-0.19-0.19
				c0-2.13,0-4.26,0-6.4c0-0.3-0.09-0.56-0.34-0.74c-0.28-0.22-0.6-0.26-0.92-0.09C5.85,6.61,5.68,6.88,5.68,7.23
				c0,2.13,0,4.26,0,6.4c0,0.24,0,0.24-0.24,0.24c-0.88,0-1.76,0-2.63,0c-0.06,0-0.13,0-0.2,0C2.61,11.64,2.61,9.42,2.61,7.19z"/>
		</g>
		<g>
			<path class="st1" d="M21.76,26.71c-0.35-0.04-0.69-0.09-1.03-0.18c-1.96-0.5-3.56-2.25-3.85-4.25c-0.27-1.86,0.27-3.45,1.62-4.75
				c0.83-0.79,1.83-1.25,2.98-1.38c1.75-0.19,3.25,0.36,4.47,1.62c0.81,0.83,1.27,1.84,1.41,3c0.17,1.45-0.19,2.76-1.1,3.91
				c-0.88,1.13-2.05,1.78-3.48,1.98c-0.11,0.01-0.23,0.03-0.34,0.04C22.22,26.71,21.99,26.71,21.76,26.71z M22.11,23.64
				c1.24,0,2.22-0.99,2.22-2.24c0-1.23-1-2.22-2.23-2.21c-1.23,0-2.22,1-2.21,2.23C19.88,22.66,20.87,23.64,22.11,23.64z"/>
		</g>
		<g>
			<path class="st1" d="M22.09,13.87c-2.84,0.02-5.31-2.29-5.29-5.33c0.02-2.96,2.43-5.26,5.3-5.26c2.95,0,5.32,2.38,5.3,5.34
				C27.38,11.58,24.96,13.89,22.09,13.87z M19.88,8.58c0,1.22,0.99,2.23,2.2,2.23c1.24,0,2.24-0.99,2.25-2.22
				c0-1.24-0.99-2.24-2.22-2.25C20.88,6.35,19.88,7.34,19.88,8.58z"/>
		</g>
	</g>
</g>
</svg>
