<svg width="48" height="48" viewBox="0 0 48 48" fill="none" xmlns="http://www.w3.org/2000/svg">
<g id="Reload Hosting">
<g id="Clip path group">
<mask id="mask0_6532_39887" style="mask-type:luminance" maskUnits="userSpaceOnUse" x="7" y="9" width="34" height="35">
<g id="clippath">
<path id="Vector" d="M40.4001 9.78027H7.6001V44.0003H40.4001V9.78027Z" fill="white"/>
</g>
</mask>
<g mask="url(#mask0_6532_39887)">
<g id="Group">
<path id="Vector_2" d="M39.0799 39.5103H27.1299C26.7899 38.4803 25.9799 37.6703 24.9499 37.3303V36.0703C29.2699 35.7203 33.0099 33.2703 35.1499 29.7503C35.1799 29.7103 35.1999 29.6703 35.2199 29.6203C36.3799 27.6603 37.0399 25.3803 37.0399 22.9403C37.0399 20.5003 36.3699 18.2203 35.2199 16.2603C35.1999 16.2203 35.1699 16.1703 35.1499 16.1403C32.8399 12.3303 28.6499 9.78027 23.8799 9.78027C19.1099 9.78027 14.9199 12.3303 12.6099 16.1403C12.5799 16.1803 12.5599 16.2203 12.5399 16.2703C11.3799 18.2303 10.7199 20.5103 10.7199 22.9503C10.7199 25.3903 11.3899 27.6703 12.5399 29.6303C12.5599 29.6703 12.5899 29.7203 12.6099 29.7603C14.7399 33.2803 18.4799 35.7303 22.8099 36.0803V37.3403C21.7799 37.6803 20.9699 38.4903 20.6299 39.5203H8.67986C8.08986 39.5203 7.60986 40.0003 7.60986 40.5903C7.60986 41.1803 8.08986 41.6603 8.67986 41.6603H20.6299C21.0799 43.0303 22.3699 44.0203 23.8799 44.0203C25.3899 44.0203 26.6799 43.0303 27.1299 41.6603H39.0799C39.6699 41.6603 40.1499 41.1803 40.1499 40.5903C40.1499 40.0003 39.6699 39.5203 39.0799 39.5203V39.5103ZM21.2199 31.0803C21.0999 30.8003 20.9899 30.5103 20.8899 30.2103H26.8699C26.7699 30.5103 26.6499 30.8003 26.5399 31.0803C25.7699 32.8903 24.7799 33.9703 23.8799 33.9703C22.9799 33.9703 21.9899 32.8903 21.2199 31.0803ZM14.1199 17.8203H18.1299C17.8899 19.1003 17.7399 20.4703 17.6899 21.8803H12.9099C13.0499 20.4303 13.4699 19.0603 14.1299 17.8203H14.1199ZM23.8799 11.9203C24.7699 11.9203 25.7599 13.0003 26.5399 14.8103C26.6599 15.0903 26.7699 15.3803 26.8699 15.6803H20.8899C20.9899 15.3803 21.1099 15.0903 21.2199 14.8103C21.9899 13.0003 22.9799 11.9203 23.8799 11.9203ZM27.4499 17.8203C27.7099 19.0803 27.8799 20.4503 27.9299 21.8803H19.8099C19.8599 20.4503 20.0299 19.0803 20.2899 17.8203H27.4399H27.4499ZM33.6299 28.0703H29.6199C29.8599 26.7903 30.0099 25.4203 30.0599 24.0103H34.8399C34.6999 25.4603 34.2799 26.8303 33.6199 28.0703H33.6299ZM34.8499 21.8703H30.0699C30.0199 20.4603 29.8699 19.0903 29.6299 17.8103H33.6399C34.2899 19.0403 34.7099 20.4103 34.8599 21.8703H34.8499ZM12.8999 24.0103H17.6799C17.7299 25.4203 17.8799 26.7903 18.1199 28.0703H14.1099C13.4599 26.8403 13.0399 25.4703 12.8899 24.0103H12.8999ZM19.8199 24.0103H27.9299C27.8799 25.4403 27.7099 26.8103 27.4499 28.0703H20.2999C20.0399 26.8103 19.8699 25.4403 19.8199 24.0103ZM27.8499 33.2303C28.0799 32.8303 28.2999 32.3903 28.4999 31.9203C28.7299 31.3903 28.9299 30.8203 29.1099 30.2103H32.1599C30.9999 31.5403 29.5199 32.5803 27.8399 33.2303H27.8499ZM32.1699 15.6803H29.1199C28.9399 15.0803 28.7299 14.5103 28.5099 13.9703C28.3099 13.4903 28.0899 13.0503 27.8599 12.6603C29.5299 13.3103 31.0099 14.3503 32.1799 15.6803H32.1699ZM19.9099 12.6603C19.6799 13.0603 19.4599 13.5003 19.2599 13.9703C19.0299 14.5003 18.8299 15.0703 18.6499 15.6803H15.5999C16.7599 14.3503 18.2399 13.3103 19.9199 12.6603H19.9099ZM15.5899 30.2103H18.6399C18.8199 30.8103 19.0199 31.3803 19.2499 31.9203C19.4499 32.4003 19.6699 32.8403 19.8999 33.2303C18.2299 32.5803 16.7499 31.5403 15.5799 30.2103H15.5899ZM23.8799 41.8603C23.1699 41.8603 22.5899 41.2803 22.5899 40.5703C22.5899 39.8603 23.1699 39.2803 23.8799 39.2803C24.5899 39.2803 25.1699 39.8603 25.1699 40.5703C25.1699 41.2803 24.5899 41.8603 23.8799 41.8603Z" fill="#38A7FF"/>
</g>
</g>
</g>
<g id="Group_2">
<g id="Group_3">
<path id="Vector_3" d="M5.45039 19.4902L5.34039 20.0102L3.90039 19.7702L3.98039 19.2002L5.45039 19.4902Z" fill="#FF6C2C"/>
<path id="Vector_4" d="M5.14021 21.0807L5.01022 22.1607L3.72021 22.0907L3.78021 20.9307L5.14021 21.0807Z" fill="#FF6C2C"/>
<path id="Vector_5" d="M4.93998 23.25L4.92998 24.35L3.80998 24.41L3.72998 23.25H4.93998Z" fill="#FF6C2C"/>
<path id="Vector_6" d="M4.9902 25.4404L5.1002 26.5304L4.1602 26.7004L3.9502 25.5604L4.9902 25.4404Z" fill="#FF6C2C"/>
<path id="Vector_7" d="M5.28018 27.6201L5.53018 28.7001L4.77018 28.9201L4.43018 27.8201L5.28018 27.6201Z" fill="#FF6C2C"/>
<path id="Vector_8" d="M5.83016 29.7598L6.19016 30.8098L5.62016 31.0498L5.16016 29.9998L5.83016 29.7598Z" fill="#FF6C2C"/>
<path id="Vector_9" d="M6.61037 31.8398L7.09037 32.8398L6.69037 33.0698L6.13037 32.0798L6.61037 31.8398Z" fill="#FF6C2C"/>
<path id="Vector_10" d="M7.63031 33.8203L8.23031 34.7703L7.99031 34.9403L7.32031 34.0203L7.63031 33.8203Z" fill="#FF6C2C"/>
<path id="Vector_11" d="M8.87045 35.6807L9.58045 36.5607L9.49045 36.6407L8.71045 35.8107L8.87045 35.6807Z" fill="#FF6C2C"/>
<path id="Vector_12" d="M10.3401 37.4004L10.7301 37.8004L10.3101 37.4304L10.3401 37.4004Z" fill="#FF6C2C"/>
</g>
<path id="Vector_13" d="M42.9302 16.7001C39.3402 6.35012 28.0302 0.870117 17.6802 4.46012C10.7902 6.85012 6.05021 12.6701 4.72021 19.3401" stroke="#FF6C2C" stroke-width="1.5" stroke-miterlimit="10"/>
<path id="Vector_14" d="M43.9 19.3805L37.52 15.0705L46.05 11.9805L43.9 19.3805Z" fill="#FF6C2C"/>
</g>
</g>
</svg>
