<?xml version="1.0" encoding="utf-8"?>
<!-- Generator: Adobe Illustrator 25.0.0, SVG Export Plug-In . SVG Version: 6.00 Build 0)  -->
<svg version="1.1" id="Layer_1" xmlns="http://www.w3.org/2000/svg" xmlns:xlink="http://www.w3.org/1999/xlink" x="0px" y="0px"
	 viewBox="0 0 30 30" style="enable-background:new 0 0 30 30;" xml:space="preserve">
<style type="text/css">
	.st0{clip-path:url(#SVGID_2_);fill:#FFFFFF;}
	.st1{clip-path:url(#SVGID_2_);fill:#118ACB;}
	.st2{clip-path:url(#SVGID_2_);}
	.st3{clip-path:url(#SVGID_4_);fill:#FFFFFF;}
	.st4{clip-path:url(#SVGID_4_);fill:#FEFEFF;}
	.st5{clip-path:url(#SVGID_4_);fill:#FDFEFE;}
	.st6{clip-path:url(#SVGID_4_);fill:#FCFDFE;}
	.st7{clip-path:url(#SVGID_4_);fill:#FBFCFD;}
	.st8{clip-path:url(#SVGID_4_);fill:#FAFBFD;}
	.st9{clip-path:url(#SVGID_4_);fill:#F9FBFC;}
	.st10{clip-path:url(#SVGID_4_);fill:#F8FAFC;}
	.st11{clip-path:url(#SVGID_4_);fill:#F6F9FB;}
	.st12{clip-path:url(#SVGID_4_);fill:#F5F8FB;}
	.st13{clip-path:url(#SVGID_4_);fill:#F4F8FA;}
	.st14{clip-path:url(#SVGID_4_);fill:#F3F7FA;}
	.st15{clip-path:url(#SVGID_4_);fill:#F2F6F9;}
	.st16{clip-path:url(#SVGID_4_);fill:#F1F5F9;}
	.st17{clip-path:url(#SVGID_4_);fill:#F0F5F8;}
	.st18{clip-path:url(#SVGID_4_);fill:#EFF4F8;}
	.st19{clip-path:url(#SVGID_4_);fill:#EEF3F7;}
	.st20{clip-path:url(#SVGID_4_);fill:#EDF2F7;}
	.st21{clip-path:url(#SVGID_4_);fill:#ECF2F6;}
	.st22{clip-path:url(#SVGID_4_);fill:#EBF1F6;}
	.st23{clip-path:url(#SVGID_4_);fill:#EAF0F5;}
	.st24{clip-path:url(#SVGID_4_);fill:#E9F0F5;}
	.st25{clip-path:url(#SVGID_4_);fill:#E7EFF4;}
	.st26{clip-path:url(#SVGID_4_);fill:#E6EEF4;}
	.st27{clip-path:url(#SVGID_4_);fill:#E5EDF3;}
	.st28{clip-path:url(#SVGID_4_);fill:#E4EDF3;}
	.st29{clip-path:url(#SVGID_4_);fill:#E3ECF2;}
	.st30{clip-path:url(#SVGID_4_);fill:#E2EBF2;}
	.st31{clip-path:url(#SVGID_4_);fill:#E1EAF1;}
	.st32{clip-path:url(#SVGID_4_);fill:#E0EAF1;}
	.st33{clip-path:url(#SVGID_4_);fill:#DFE9F0;}
	.st34{clip-path:url(#SVGID_4_);fill:#DEE8F0;}
	.st35{clip-path:url(#SVGID_4_);fill:#DDE7EF;}
	.st36{clip-path:url(#SVGID_4_);fill:#DCE7EF;}
	.st37{clip-path:url(#SVGID_4_);fill:#DBE6EE;}
	.st38{clip-path:url(#SVGID_4_);fill:#DAE5EE;}
	.st39{clip-path:url(#SVGID_4_);fill:#D9E5ED;}
	.st40{clip-path:url(#SVGID_4_);fill:#D8E4ED;}
	.st41{clip-path:url(#SVGID_4_);fill:#D6E3EC;}
	.st42{clip-path:url(#SVGID_4_);fill:#D5E2EC;}
	.st43{clip-path:url(#SVGID_4_);fill:#D4E2EB;}
	.st44{clip-path:url(#SVGID_4_);fill:#D3E1EB;}
	.st45{clip-path:url(#SVGID_4_);fill:#D2E0EA;}
	.st46{clip-path:url(#SVGID_4_);fill:#D1DFEA;}
	.st47{clip-path:url(#SVGID_4_);fill:#D0DFE9;}
	.st48{clip-path:url(#SVGID_4_);fill:#CFDEE9;}
	.st49{clip-path:url(#SVGID_4_);fill:#CEDDE8;}
	.st50{clip-path:url(#SVGID_4_);fill:#CDDDE8;}
	.st51{clip-path:url(#SVGID_4_);fill:#CCDCE7;}
	.st52{clip-path:url(#SVGID_4_);fill:#CBDBE7;}
	.st53{clip-path:url(#SVGID_4_);fill:#CADAE6;}
	.st54{clip-path:url(#SVGID_4_);fill:#C9DAE6;}
	.st55{clip-path:url(#SVGID_4_);fill:#C8D9E5;}
	.st56{clip-path:url(#SVGID_4_);fill:#C7D8E5;}
	.st57{clip-path:url(#SVGID_4_);fill:#C6D7E4;}
	.st58{clip-path:url(#SVGID_4_);fill:#C4D7E4;}
	.st59{clip-path:url(#SVGID_4_);fill:#C3D6E3;}
	.st60{clip-path:url(#SVGID_4_);fill:#C2D5E3;}
	.st61{clip-path:url(#SVGID_4_);fill:#C1D5E2;}
	.st62{clip-path:url(#SVGID_4_);fill:#C0D4E2;}
	.st63{clip-path:url(#SVGID_4_);fill:#BFD3E1;}
	.st64{clip-path:url(#SVGID_4_);fill:#BED2E1;}
	.st65{clip-path:url(#SVGID_4_);fill:#BDD2E0;}
	.st66{clip-path:url(#SVGID_4_);fill:#BCD1E0;}
	.st67{clip-path:url(#SVGID_4_);fill:#BBD0DF;}
	.st68{clip-path:url(#SVGID_4_);fill:#BACFDF;}
	.st69{clip-path:url(#SVGID_4_);fill:#B9CFDE;}
	.st70{clip-path:url(#SVGID_4_);fill:#B8CEDE;}
	.st71{clip-path:url(#SVGID_4_);fill:#B7CDDD;}
	.st72{clip-path:url(#SVGID_4_);fill:#B6CDDD;}
	.st73{clip-path:url(#SVGID_4_);fill:#B5CCDC;}
	.st74{clip-path:url(#SVGID_4_);fill:#B4CBDC;}
	.st75{clip-path:url(#SVGID_4_);fill:#B3CADC;}
	.st76{clip-path:url(#SVGID_4_);fill:#B2CADB;}
	.st77{clip-path:url(#SVGID_4_);fill:#B1C9DB;}
	.st78{clip-path:url(#SVGID_4_);fill:#AFC8DA;}
	.st79{clip-path:url(#SVGID_4_);fill:#AEC7DA;}
	.st80{clip-path:url(#SVGID_4_);fill:#ADC7D9;}
	.st81{clip-path:url(#SVGID_4_);fill:#ACC6D9;}
	.st82{clip-path:url(#SVGID_4_);fill:#ABC5D8;}
	.st83{clip-path:url(#SVGID_4_);fill:#AAC5D8;}
	.st84{clip-path:url(#SVGID_4_);fill:#A9C4D7;}
	.st85{clip-path:url(#SVGID_4_);fill:#A8C3D7;}
	.st86{clip-path:url(#SVGID_4_);fill:#A7C2D6;}
	.st87{clip-path:url(#SVGID_4_);fill:#A6C2D6;}
	.st88{clip-path:url(#SVGID_4_);fill:#A5C1D5;}
	.st89{clip-path:url(#SVGID_4_);fill:#A4C0D5;}
	.st90{clip-path:url(#SVGID_4_);fill:#A3C0D4;}
	.st91{clip-path:url(#SVGID_4_);fill:#A2BFD4;}
	.st92{clip-path:url(#SVGID_4_);fill:#A1BED3;}
	.st93{clip-path:url(#SVGID_4_);fill:#A0BDD3;}
	.st94{clip-path:url(#SVGID_4_);fill:#9FBDD2;}
	.st95{clip-path:url(#SVGID_4_);fill:#9EBCD2;}
	.st96{clip-path:url(#SVGID_4_);fill:#9DBBD1;}
	.st97{clip-path:url(#SVGID_4_);fill:#9CBBD1;}
	.st98{clip-path:url(#SVGID_4_);fill:#9BBAD0;}
	.st99{clip-path:url(#SVGID_4_);fill:#9AB9D0;}
	.st100{clip-path:url(#SVGID_4_);fill:#99B8CF;}
	.st101{clip-path:url(#SVGID_4_);fill:#98B8CF;}
	.st102{clip-path:url(#SVGID_4_);fill:#96B7CE;}
	.st103{clip-path:url(#SVGID_4_);fill:#95B6CE;}
	.st104{clip-path:url(#SVGID_4_);fill:#94B6CD;}
	.st105{clip-path:url(#SVGID_4_);fill:#93B5CD;}
	.st106{clip-path:url(#SVGID_4_);fill:#92B4CD;}
	.st107{clip-path:url(#SVGID_4_);fill:#91B3CC;}
	.st108{clip-path:url(#SVGID_4_);fill:#90B3CC;}
	.st109{clip-path:url(#SVGID_4_);fill:#8FB2CB;}
	.st110{clip-path:url(#SVGID_4_);fill:#8EB1CB;}
	.st111{clip-path:url(#SVGID_4_);fill:#8DB1CA;}
	.st112{clip-path:url(#SVGID_4_);fill:#8CB0CA;}
	.st113{clip-path:url(#SVGID_4_);fill:#8BAFC9;}
	.st114{clip-path:url(#SVGID_4_);fill:#8AAEC9;}
	.st115{clip-path:url(#SVGID_4_);fill:#89AEC8;}
	.st116{clip-path:url(#SVGID_4_);fill:#88ADC8;}
	.st117{clip-path:url(#SVGID_4_);fill:#87ACC7;}
	.st118{clip-path:url(#SVGID_4_);fill:#86ACC7;}
	.st119{clip-path:url(#SVGID_4_);fill:#85ABC6;}
	.st120{clip-path:url(#SVGID_4_);fill:#84AAC6;}
	.st121{clip-path:url(#SVGID_4_);fill:#83A9C5;}
	.st122{clip-path:url(#SVGID_4_);fill:#82A9C5;}
	.st123{clip-path:url(#SVGID_4_);fill:#81A8C4;}
	.st124{clip-path:url(#SVGID_4_);fill:#80A7C4;}
	.st125{clip-path:url(#SVGID_4_);fill:#7FA7C3;}
	.st126{clip-path:url(#SVGID_4_);fill:#7EA6C3;}
	.st127{clip-path:url(#SVGID_4_);fill:#7DA5C2;}
	.st128{clip-path:url(#SVGID_4_);fill:#7CA5C2;}
	.st129{clip-path:url(#SVGID_4_);fill:#7BA4C2;}
	.st130{clip-path:url(#SVGID_4_);fill:#7AA3C1;}
	.st131{clip-path:url(#SVGID_4_);fill:#79A2C1;}
	.st132{clip-path:url(#SVGID_4_);fill:#78A2C0;}
	.st133{clip-path:url(#SVGID_4_);fill:#77A1C0;}
	.st134{clip-path:url(#SVGID_4_);fill:#76A0BF;}
	.st135{clip-path:url(#SVGID_4_);fill:#75A0BF;}
	.st136{clip-path:url(#SVGID_4_);fill:#749FBE;}
	.st137{clip-path:url(#SVGID_4_);fill:#729EBE;}
	.st138{clip-path:url(#SVGID_4_);fill:#719DBD;}
	.st139{clip-path:url(#SVGID_4_);fill:#709DBD;}
	.st140{clip-path:url(#SVGID_4_);fill:#6F9CBC;}
	.st141{clip-path:url(#SVGID_4_);fill:#6E9BBC;}
	.st142{clip-path:url(#SVGID_4_);fill:#6D9BBB;}
	.st143{clip-path:url(#SVGID_4_);fill:#6C9ABB;}
	.st144{clip-path:url(#SVGID_4_);fill:#6B99BA;}
	.st145{clip-path:url(#SVGID_4_);fill:#6A99BA;}
	.st146{clip-path:url(#SVGID_4_);fill:#6998B9;}
	.st147{clip-path:url(#SVGID_4_);fill:#6897B9;}
	.st148{clip-path:url(#SVGID_4_);fill:#6796B9;}
	.st149{clip-path:url(#SVGID_4_);fill:#6696B8;}
	.st150{clip-path:url(#SVGID_4_);fill:#6595B8;}
	.st151{clip-path:url(#SVGID_4_);fill:#6494B7;}
	.st152{clip-path:url(#SVGID_4_);fill:#6394B7;}
	.st153{clip-path:url(#SVGID_4_);fill:#6293B6;}
	.st154{clip-path:url(#SVGID_4_);fill:#6192B6;}
	.st155{clip-path:url(#SVGID_4_);fill:#6092B5;}
	.st156{clip-path:url(#SVGID_4_);fill:#5F91B5;}
	.st157{clip-path:url(#SVGID_4_);fill:#5E90B4;}
	.st158{clip-path:url(#SVGID_4_);fill:#5D90B4;}
	.st159{clip-path:url(#SVGID_4_);fill:#5C8FB3;}
	.st160{clip-path:url(#SVGID_4_);fill:#5B8EB3;}
	.st161{clip-path:url(#SVGID_4_);fill:#5A8DB2;}
	.st162{clip-path:url(#SVGID_4_);fill:#598DB2;}
	.st163{clip-path:url(#SVGID_4_);fill:#588CB2;}
	.st164{clip-path:url(#SVGID_4_);fill:#578BB1;}
	.st165{clip-path:url(#SVGID_4_);fill:#568BB1;}
	.st166{clip-path:url(#SVGID_4_);fill:#558AB0;}
	.st167{clip-path:url(#SVGID_4_);fill:#5489B0;}
	.st168{clip-path:url(#SVGID_4_);fill:#5389AF;}
	.st169{clip-path:url(#SVGID_4_);fill:#5288AF;}
	.st170{clip-path:url(#SVGID_4_);fill:#5187AE;}
	.st171{clip-path:url(#SVGID_4_);fill:#5087AE;}
	.st172{clip-path:url(#SVGID_4_);fill:#4F86AD;}
	.st173{clip-path:url(#SVGID_4_);fill:#4E85AD;}
	.st174{clip-path:url(#SVGID_4_);fill:#4D85AC;}
	.st175{clip-path:url(#SVGID_4_);fill:#4C84AC;}
	.st176{clip-path:url(#SVGID_4_);fill:#4B83AB;}
	.st177{clip-path:url(#SVGID_4_);fill:#4A82AB;}
	.st178{clip-path:url(#SVGID_4_);fill:#4982AB;}
	.st179{clip-path:url(#SVGID_4_);fill:#4881AA;}
	.st180{clip-path:url(#SVGID_4_);fill:#4780AA;}
	.st181{clip-path:url(#SVGID_4_);fill:#4680A9;}
	.st182{clip-path:url(#SVGID_4_);fill:#457FA9;}
	.st183{clip-path:url(#SVGID_4_);fill:#447EA8;}
	.st184{clip-path:url(#SVGID_4_);fill:#437EA8;}
	.st185{clip-path:url(#SVGID_4_);fill:#427DA7;}
	.st186{clip-path:url(#SVGID_4_);fill:#417CA7;}
	.st187{clip-path:url(#SVGID_4_);fill:#407CA6;}
	.st188{clip-path:url(#SVGID_4_);fill:#3F7BA6;}
	.st189{clip-path:url(#SVGID_4_);fill:#3E7AA6;}
	.st190{clip-path:url(#SVGID_4_);fill:#3D7AA5;}
	.st191{clip-path:url(#SVGID_4_);fill:#3C79A5;}
	.st192{clip-path:url(#SVGID_4_);fill:#3C78A4;}
	.st193{clip-path:url(#SVGID_4_);fill:#3B78A4;}
	.st194{clip-path:url(#SVGID_4_);fill:#3A77A3;}
	.st195{clip-path:url(#SVGID_4_);fill:#3976A3;}
	.st196{clip-path:url(#SVGID_4_);fill:#3876A2;}
	.st197{clip-path:url(#SVGID_4_);fill:#3775A2;}
	.st198{clip-path:url(#SVGID_4_);fill:#3674A1;}
	.st199{clip-path:url(#SVGID_4_);fill:#3574A1;}
	.st200{clip-path:url(#SVGID_4_);fill:#3473A1;}
	.st201{clip-path:url(#SVGID_4_);fill:#3372A0;}
	.st202{clip-path:url(#SVGID_4_);fill:#3272A0;}
	.st203{clip-path:url(#SVGID_4_);fill:#31719F;}
	.st204{clip-path:url(#SVGID_4_);fill:#30709F;}
	.st205{clip-path:url(#SVGID_4_);fill:#2F709E;}
	.st206{clip-path:url(#SVGID_4_);fill:#2E6F9E;}
	.st207{clip-path:url(#SVGID_4_);fill:#2D6E9D;}
	.st208{clip-path:url(#SVGID_4_);fill:#2C6E9D;}
	.st209{clip-path:url(#SVGID_4_);fill:#2B6D9D;}
	.st210{clip-path:url(#SVGID_4_);fill:#2A6C9C;}
	.st211{clip-path:url(#SVGID_4_);fill:#296C9C;}
	.st212{clip-path:url(#SVGID_4_);fill:#286B9B;}
	.st213{clip-path:url(#SVGID_4_);fill:#276A9B;}
	.st214{clip-path:url(#SVGID_4_);fill:#266A9A;}
	.st215{clip-path:url(#SVGID_4_);fill:#25699A;}
	.st216{clip-path:url(#SVGID_4_);fill:#246899;}
	.st217{clip-path:url(#SVGID_4_);fill:#236899;}
	.st218{clip-path:url(#SVGID_4_);fill:#236799;}
	.st219{clip-path:url(#SVGID_4_);fill:#226698;}
	.st220{clip-path:url(#SVGID_4_);fill:#216698;}
	.st221{clip-path:url(#SVGID_4_);fill:#206597;}
	.st222{clip-path:url(#SVGID_4_);fill:#1F6597;}
	.st223{clip-path:url(#SVGID_4_);fill:#1E6496;}
	.st224{clip-path:url(#SVGID_4_);fill:#1D6396;}
	.st225{clip-path:url(#SVGID_4_);fill:#1C6396;}
	.st226{clip-path:url(#SVGID_4_);fill:#1B6295;}
	.st227{clip-path:url(#SVGID_4_);fill:#1A6195;}
	.st228{clip-path:url(#SVGID_4_);fill:#196194;}
	.st229{clip-path:url(#SVGID_4_);fill:#186094;}
	.st230{clip-path:url(#SVGID_4_);fill:#175F93;}
	.st231{clip-path:url(#SVGID_4_);fill:#165F93;}
	.st232{clip-path:url(#SVGID_4_);fill:#165E93;}
	.st233{clip-path:url(#SVGID_4_);fill:#155E92;}
	.st234{clip-path:url(#SVGID_4_);fill:#145D92;}
	.st235{clip-path:url(#SVGID_4_);fill:#135C91;}
	.st236{clip-path:url(#SVGID_4_);fill:#125C91;}
	.st237{clip-path:url(#SVGID_4_);fill:#115B90;}
	.st238{clip-path:url(#SVGID_4_);fill:#105A90;}
	.st239{clip-path:url(#SVGID_4_);fill:#0F5A90;}
	.st240{clip-path:url(#SVGID_4_);fill:#0E598F;}
	.st241{clip-path:url(#SVGID_4_);fill:#0D598F;}
	.st242{clip-path:url(#SVGID_4_);fill:#0D588E;}
	.st243{clip-path:url(#SVGID_4_);fill:#0C578E;}
	.st244{clip-path:url(#SVGID_4_);fill:#0B578E;}
	.st245{clip-path:url(#SVGID_4_);fill:#0A568D;}
	.st246{clip-path:url(#SVGID_4_);fill:#09568D;}
	.st247{clip-path:url(#SVGID_4_);fill:#08558C;}
	.st248{clip-path:url(#SVGID_4_);fill:#07548C;}
	.st249{clip-path:url(#SVGID_4_);fill:#06538B;}
	.st250{clip-path:url(#SVGID_4_);fill:#05538B;}
	.st251{clip-path:url(#SVGID_4_);fill:#04528A;}
	.st252{clip-path:url(#SVGID_4_);fill:#03528A;}
	.st253{clip-path:url(#SVGID_4_);fill:#02518A;}
	.st254{clip-path:url(#SVGID_4_);fill:#025089;}
	.st255{clip-path:url(#SVGID_4_);fill:#015089;}
	.st256{fill:#FEFEFE;}
	.st257{fill:#002F72;}
</style>
<g>
	<defs>
		<rect id="SVGID_1_" x="0" y="0" width="30" height="30"/>
	</defs>
	<clipPath id="SVGID_2_">
		<use xlink:href="#SVGID_1_"  style="overflow:visible;"/>
	</clipPath>
	<path class="st0" d="M25.9,29.9H4.1c-2.2,0-4-1.8-4-4V4.1c0-2.2,1.8-4,4-4h21.8c2.2,0,4,1.8,4,4v21.8
		C29.9,28.1,28.1,29.9,25.9,29.9z"/>
	<path class="st1" d="M25.9,30H4.1C1.8,30,0,28.2,0,25.9V4.1C0,1.8,1.8,0,4.1,0h21.8C28.2,0,30,1.8,30,4.1v21.8
		C30,28.2,28.2,30,25.9,30z M4.1,0.2C2,0.2,0.3,2,0.3,4.1l0,0v21.8c0,2.1,1.7,3.8,3.8,3.8l0,0h21.8c2.1,0,3.8-1.7,3.8-3.8l0,0V4.1
		c0-2.1-1.7-3.8-3.8-3.8l0,0L4.1,0.2L4.1,0.2z"/>
	<g class="st2">
		<g>
			<defs>
				<path id="SVGID_3_" d="M27.8,16L16,27.8c-0.6,0.6-1.5,0.6-2,0L2.2,16c-0.6-0.6-0.6-1.5,0-2L14,2.2c0.6-0.6,1.5-0.6,2,0L27.8,14
					C28.4,14.5,28.4,15.5,27.8,16z"/>
			</defs>
			<clipPath id="SVGID_4_">
				<use xlink:href="#SVGID_3_"  style="overflow:visible;"/>
			</clipPath>
			<polygon class="st3" points="8.6,1.5 1.5,3.6 1.5,1.5 			"/>
			<polygon class="st3" points="8.7,1.5 1.5,3.6 1.5,3.6 8.6,1.5 			"/>
			<polygon class="st4" points="8.8,1.5 1.5,3.7 1.5,3.6 8.7,1.5 			"/>
			<polygon class="st5" points="9,1.5 1.5,3.7 1.5,3.7 8.8,1.5 			"/>
			<polygon class="st6" points="9.1,1.5 1.5,3.7 1.5,3.7 9,1.5 			"/>
			<polygon class="st7" points="9.2,1.5 1.5,3.8 1.5,3.7 9.1,1.5 			"/>
			<polygon class="st8" points="9.3,1.5 1.5,3.8 1.5,3.8 9.2,1.5 			"/>
			<polygon class="st9" points="9.4,1.5 1.5,3.8 1.5,3.8 9.3,1.5 			"/>
			<polygon class="st10" points="9.5,1.5 1.5,3.9 1.5,3.8 9.4,1.5 			"/>
			<polygon class="st11" points="9.6,1.5 1.5,3.9 1.5,3.9 9.5,1.5 			"/>
			<polygon class="st12" points="9.7,1.5 1.5,3.9 1.5,3.9 9.6,1.5 			"/>
			<polygon class="st13" points="9.8,1.5 1.5,4 1.5,3.9 9.7,1.5 			"/>
			<polygon class="st14" points="9.9,1.5 1.5,4 1.5,4 9.8,1.5 			"/>
			<polygon class="st15" points="10.1,1.5 1.5,4 1.5,4 9.9,1.5 			"/>
			<polygon class="st16" points="10.2,1.5 1.5,4.1 1.5,4 10.1,1.5 			"/>
			<polygon class="st17" points="10.3,1.5 1.5,4.1 1.5,4.1 10.2,1.5 			"/>
			<polygon class="st18" points="10.4,1.5 1.5,4.1 1.5,4.1 10.3,1.5 			"/>
			<polygon class="st19" points="10.5,1.5 1.5,4.1 1.5,4.1 10.4,1.5 			"/>
			<polygon class="st20" points="10.6,1.5 1.5,4.2 1.5,4.1 10.5,1.5 			"/>
			<polygon class="st21" points="10.7,1.5 1.5,4.2 1.5,4.2 10.6,1.5 			"/>
			<polygon class="st22" points="10.8,1.5 1.5,4.2 1.5,4.2 10.7,1.5 			"/>
			<polygon class="st23" points="10.9,1.5 1.5,4.3 1.5,4.2 10.8,1.5 			"/>
			<polygon class="st24" points="11.1,1.5 1.5,4.3 1.5,4.3 10.9,1.5 			"/>
			<polygon class="st25" points="11.2,1.5 1.5,4.3 1.5,4.3 11.1,1.5 			"/>
			<polygon class="st26" points="11.3,1.5 1.5,4.4 1.5,4.3 11.2,1.5 			"/>
			<polygon class="st27" points="11.4,1.5 1.5,4.4 1.5,4.4 11.3,1.5 			"/>
			<polygon class="st28" points="11.5,1.5 1.5,4.4 1.5,4.4 11.4,1.5 			"/>
			<polygon class="st29" points="11.6,1.5 1.5,4.5 1.5,4.4 11.5,1.5 			"/>
			<polygon class="st30" points="11.7,1.5 1.5,4.5 1.5,4.5 11.6,1.5 			"/>
			<polygon class="st31" points="11.8,1.5 1.5,4.5 1.5,4.5 11.7,1.5 			"/>
			<polygon class="st32" points="11.9,1.5 1.5,4.6 1.5,4.5 11.8,1.5 			"/>
			<polygon class="st33" points="12,1.5 1.5,4.6 1.5,4.6 11.9,1.5 			"/>
			<polygon class="st34" points="12.2,1.5 1.5,4.6 1.5,4.6 12,1.5 			"/>
			<polygon class="st35" points="12.3,1.5 1.5,4.7 1.5,4.6 12.2,1.5 			"/>
			<polygon class="st36" points="12.4,1.5 1.5,4.7 1.5,4.7 12.3,1.5 			"/>
			<polygon class="st37" points="12.5,1.5 1.5,4.7 1.5,4.7 12.4,1.5 			"/>
			<polygon class="st38" points="12.6,1.5 1.5,4.8 1.5,4.7 12.5,1.5 			"/>
			<polygon class="st39" points="12.7,1.5 1.5,4.8 1.5,4.8 12.6,1.5 			"/>
			<polygon class="st40" points="12.8,1.5 1.5,4.8 1.5,4.8 12.7,1.5 			"/>
			<polygon class="st41" points="12.9,1.5 1.5,4.9 1.5,4.8 12.8,1.5 			"/>
			<polygon class="st42" points="13,1.5 1.5,4.9 1.5,4.9 12.9,1.5 			"/>
			<polygon class="st43" points="13.2,1.5 1.5,4.9 1.5,4.9 13,1.5 			"/>
			<polygon class="st44" points="13.3,1.5 1.5,5 1.5,4.9 13.2,1.5 			"/>
			<polygon class="st45" points="13.4,1.5 1.5,5 1.5,5 13.3,1.5 			"/>
			<polygon class="st46" points="13.5,1.5 1.5,5 1.5,5 13.4,1.5 			"/>
			<polygon class="st47" points="13.6,1.5 1.5,5 1.5,5 13.5,1.5 			"/>
			<polygon class="st48" points="13.7,1.5 1.5,5.1 1.5,5 13.6,1.5 			"/>
			<polygon class="st49" points="13.8,1.5 1.5,5.1 1.5,5.1 13.7,1.5 			"/>
			<polygon class="st50" points="13.9,1.5 1.5,5.1 1.5,5.1 13.8,1.5 			"/>
			<polygon class="st51" points="14,1.5 1.5,5.2 1.5,5.1 13.9,1.5 			"/>
			<polygon class="st52" points="14.1,1.5 1.5,5.2 1.5,5.2 14,1.5 			"/>
			<polygon class="st53" points="14.3,1.5 1.5,5.2 1.5,5.2 14.1,1.5 			"/>
			<polygon class="st54" points="14.4,1.5 1.5,5.3 1.5,5.2 14.3,1.5 			"/>
			<polygon class="st55" points="14.5,1.5 1.5,5.3 1.5,5.3 14.4,1.5 			"/>
			<polygon class="st56" points="14.6,1.5 1.5,5.3 1.5,5.3 14.5,1.5 			"/>
			<polygon class="st57" points="14.7,1.5 1.5,5.4 1.5,5.3 14.6,1.5 			"/>
			<polygon class="st58" points="14.8,1.5 1.5,5.4 1.5,5.4 14.7,1.5 			"/>
			<polygon class="st59" points="14.9,1.5 1.5,5.4 1.5,5.4 14.8,1.5 			"/>
			<polygon class="st60" points="15,1.5 1.5,5.5 1.5,5.4 14.9,1.5 			"/>
			<polygon class="st61" points="15.1,1.5 1.5,5.5 1.5,5.5 15,1.5 			"/>
			<polygon class="st62" points="15.3,1.5 1.5,5.5 1.5,5.5 15.1,1.5 			"/>
			<polygon class="st63" points="15.4,1.5 1.5,5.6 1.5,5.5 15.3,1.5 			"/>
			<polygon class="st64" points="15.5,1.5 1.5,5.6 1.5,5.6 15.4,1.5 			"/>
			<polygon class="st65" points="15.6,1.5 1.5,5.6 1.5,5.6 15.5,1.5 			"/>
			<polygon class="st66" points="15.7,1.5 1.5,5.7 1.5,5.6 15.6,1.5 			"/>
			<polygon class="st67" points="15.8,1.5 1.5,5.7 1.5,5.7 15.7,1.5 			"/>
			<polygon class="st68" points="15.9,1.5 1.5,5.7 1.5,5.7 15.8,1.5 			"/>
			<polygon class="st69" points="16,1.5 1.5,5.8 1.5,5.7 15.9,1.5 			"/>
			<polygon class="st70" points="16.1,1.5 1.5,5.8 1.5,5.8 16,1.5 			"/>
			<polygon class="st71" points="16.2,1.5 1.5,5.8 1.5,5.8 16.1,1.5 			"/>
			<polygon class="st72" points="16.4,1.5 1.5,5.9 1.5,5.8 16.2,1.5 			"/>
			<polygon class="st73" points="16.5,1.5 1.5,5.9 1.5,5.9 16.4,1.5 			"/>
			<polygon class="st74" points="16.6,1.5 1.5,5.9 1.5,5.9 16.5,1.5 			"/>
			<polygon class="st75" points="16.7,1.5 1.5,5.9 1.5,5.9 16.6,1.5 			"/>
			<polygon class="st76" points="16.8,1.5 1.5,6 1.5,5.9 16.7,1.5 			"/>
			<polygon class="st77" points="16.9,1.5 1.5,6 1.5,6 16.8,1.5 			"/>
			<polygon class="st78" points="17,1.5 1.5,6 1.5,6 16.9,1.5 			"/>
			<polygon class="st79" points="17.1,1.5 1.5,6.1 1.5,6 17,1.5 			"/>
			<polygon class="st80" points="17.2,1.5 1.5,6.1 1.5,6.1 17.1,1.5 			"/>
			<polygon class="st81" points="17.3,1.5 1.5,6.1 1.5,6.1 17.2,1.5 			"/>
			<polygon class="st82" points="17.5,1.5 1.5,6.2 1.5,6.1 17.3,1.5 			"/>
			<polygon class="st83" points="17.6,1.5 1.5,6.2 1.5,6.2 17.5,1.5 			"/>
			<polygon class="st84" points="17.7,1.5 1.5,6.2 1.5,6.2 17.6,1.5 			"/>
			<polygon class="st85" points="17.8,1.5 1.5,6.3 1.5,6.2 17.7,1.5 			"/>
			<polygon class="st86" points="17.9,1.5 1.5,6.3 1.5,6.3 17.8,1.5 			"/>
			<polygon class="st87" points="18,1.5 1.5,6.3 1.5,6.3 17.9,1.5 			"/>
			<polygon class="st88" points="18.1,1.5 1.5,6.4 1.5,6.3 18,1.5 			"/>
			<polygon class="st89" points="18.2,1.5 1.5,6.4 1.5,6.4 18.1,1.5 			"/>
			<polygon class="st90" points="18.3,1.5 1.5,6.4 1.5,6.4 18.2,1.5 			"/>
			<polygon class="st91" points="18.5,1.5 1.5,6.5 1.5,6.4 18.3,1.5 			"/>
			<polygon class="st92" points="18.6,1.5 1.5,6.5 1.5,6.5 18.5,1.5 			"/>
			<polygon class="st93" points="18.7,1.5 1.5,6.5 1.5,6.5 18.6,1.5 			"/>
			<polygon class="st94" points="18.8,1.5 1.5,6.6 1.5,6.5 18.7,1.5 			"/>
			<polygon class="st95" points="18.9,1.5 1.5,6.6 1.5,6.6 18.8,1.5 			"/>
			<polygon class="st96" points="19,1.5 1.5,6.6 1.5,6.6 18.9,1.5 			"/>
			<polygon class="st97" points="19.1,1.5 1.5,6.7 1.5,6.6 19,1.5 			"/>
			<polygon class="st98" points="19.2,1.5 1.5,6.7 1.5,6.7 19.1,1.5 			"/>
			<polygon class="st99" points="19.3,1.5 1.5,6.7 1.5,6.7 19.2,1.5 			"/>
			<polygon class="st100" points="19.4,1.5 1.5,6.7 1.5,6.7 19.3,1.5 			"/>
			<polygon class="st101" points="19.6,1.5 1.5,6.8 1.5,6.7 19.4,1.5 			"/>
			<polygon class="st102" points="19.7,1.5 1.5,6.8 1.5,6.8 19.6,1.5 			"/>
			<polygon class="st103" points="19.8,1.5 1.5,6.8 1.5,6.8 19.7,1.5 			"/>
			<polygon class="st104" points="19.9,1.5 1.5,6.9 1.5,6.8 19.8,1.5 			"/>
			<polygon class="st105" points="20,1.5 1.5,6.9 1.5,6.9 19.9,1.5 			"/>
			<polygon class="st106" points="20.1,1.5 1.5,6.9 1.5,6.9 20,1.5 			"/>
			<polygon class="st107" points="20.2,1.5 1.5,7 1.5,6.9 20.1,1.5 			"/>
			<polygon class="st108" points="20.3,1.5 1.5,7 1.5,7 20.2,1.5 			"/>
			<polygon class="st109" points="20.4,1.5 1.5,7 1.5,7 20.3,1.5 			"/>
			<polygon class="st110" points="20.6,1.5 1.5,7.1 1.5,7 20.4,1.5 			"/>
			<polygon class="st111" points="20.7,1.5 1.5,7.1 1.5,7.1 20.6,1.5 			"/>
			<polygon class="st112" points="20.8,1.5 1.5,7.1 1.5,7.1 20.7,1.5 			"/>
			<polygon class="st113" points="20.9,1.5 1.5,7.2 1.5,7.1 20.8,1.5 			"/>
			<polygon class="st114" points="21,1.5 1.5,7.2 1.5,7.2 20.9,1.5 			"/>
			<polygon class="st115" points="21.1,1.5 1.5,7.2 1.5,7.2 21,1.5 			"/>
			<polygon class="st116" points="21.2,1.5 1.5,7.3 1.5,7.2 21.1,1.5 			"/>
			<polygon class="st117" points="21.3,1.5 1.5,7.3 1.5,7.3 21.2,1.5 			"/>
			<polygon class="st118" points="21.4,1.5 1.5,7.3 1.5,7.3 21.3,1.5 			"/>
			<polygon class="st119" points="21.5,1.5 1.5,7.4 1.5,7.3 21.4,1.5 			"/>
			<polygon class="st120" points="21.7,1.5 1.5,7.4 1.5,7.4 21.5,1.5 			"/>
			<polygon class="st121" points="21.8,1.5 1.5,7.4 1.5,7.4 21.7,1.5 			"/>
			<polygon class="st122" points="21.9,1.5 1.5,7.5 1.5,7.4 21.8,1.5 			"/>
			<polygon class="st123" points="22,1.5 1.5,7.5 1.5,7.5 21.9,1.5 			"/>
			<polygon class="st124" points="22.1,1.5 1.5,7.5 1.5,7.5 22,1.5 			"/>
			<polygon class="st125" points="22.2,1.5 1.5,7.6 1.5,7.5 22.1,1.5 			"/>
			<polygon class="st126" points="22.3,1.5 1.5,7.6 1.5,7.6 22.2,1.5 			"/>
			<polygon class="st127" points="22.4,1.5 1.5,7.6 1.5,7.6 22.3,1.5 			"/>
			<polygon class="st128" points="22.5,1.5 1.5,7.6 1.5,7.6 22.4,1.5 			"/>
			<polygon class="st129" points="22.7,1.5 1.5,7.7 1.5,7.6 22.5,1.5 			"/>
			<polygon class="st130" points="22.8,1.5 1.5,7.7 1.5,7.7 22.7,1.5 			"/>
			<polygon class="st131" points="22.9,1.5 1.5,7.7 1.5,7.7 22.8,1.5 			"/>
			<polygon class="st132" points="23,1.5 1.5,7.8 1.5,7.7 22.9,1.5 			"/>
			<polygon class="st133" points="23.1,1.5 1.5,7.8 1.5,7.8 23,1.5 			"/>
			<polygon class="st134" points="23.2,1.5 1.5,7.8 1.5,7.8 23.1,1.5 			"/>
			<polygon class="st135" points="23.3,1.5 1.5,7.9 1.5,7.8 23.2,1.5 			"/>
			<polygon class="st136" points="23.4,1.5 1.5,7.9 1.5,7.9 23.3,1.5 			"/>
			<polygon class="st137" points="23.5,1.5 1.5,7.9 1.5,7.9 23.4,1.5 			"/>
			<polygon class="st138" points="23.6,1.5 1.5,8 1.5,7.9 23.5,1.5 			"/>
			<polygon class="st139" points="23.8,1.5 1.5,8 1.5,8 23.6,1.5 			"/>
			<polygon class="st140" points="23.9,1.5 1.5,8 1.5,8 23.8,1.5 			"/>
			<polygon class="st141" points="24,1.5 1.5,8.1 1.5,8 23.9,1.5 			"/>
			<polygon class="st142" points="24.1,1.5 1.5,8.1 1.5,8.1 24,1.5 			"/>
			<polygon class="st143" points="24.2,1.5 1.5,8.1 1.5,8.1 24.1,1.5 			"/>
			<polygon class="st144" points="24.3,1.5 1.5,8.2 1.5,8.1 24.2,1.5 			"/>
			<polygon class="st145" points="24.4,1.5 1.5,8.2 1.5,8.2 24.3,1.5 			"/>
			<polygon class="st146" points="24.5,1.5 1.5,8.2 1.5,8.2 24.4,1.5 			"/>
			<polygon class="st147" points="24.6,1.5 1.5,8.3 1.5,8.2 24.5,1.5 			"/>
			<polygon class="st148" points="24.8,1.5 1.5,8.3 1.5,8.3 24.6,1.5 			"/>
			<polygon class="st149" points="24.9,1.5 1.5,8.3 1.5,8.3 24.8,1.5 			"/>
			<polygon class="st150" points="25,1.5 1.5,8.4 1.5,8.3 24.9,1.5 			"/>
			<polygon class="st151" points="25.1,1.5 1.5,8.4 1.5,8.4 25,1.5 			"/>
			<polygon class="st152" points="25.1,1.5 25.1,1.6 1.5,8.4 1.5,8.4 25.1,1.5 			"/>
			<polygon class="st153" points="25.1,1.6 25.1,1.6 1.5,8.5 1.5,8.4 			"/>
			<polygon class="st154" points="25.1,1.6 25.1,1.6 1.5,8.5 1.5,8.5 			"/>
			<polygon class="st155" points="25.1,1.6 25.1,1.7 1.5,8.5 1.5,8.5 			"/>
			<polygon class="st156" points="25.1,1.7 25.1,1.7 1.5,8.5 1.5,8.5 			"/>
			<polygon class="st157" points="25.1,1.7 25.2,1.7 1.5,8.6 1.5,8.5 			"/>
			<polygon class="st158" points="25.2,1.7 25.2,1.7 1.5,8.6 1.5,8.6 			"/>
			<polygon class="st159" points="25.2,1.7 25.2,1.8 1.5,8.6 1.5,8.6 			"/>
			<polygon class="st160" points="25.2,1.8 25.2,1.8 1.5,8.7 1.5,8.6 			"/>
			<polygon class="st161" points="25.2,1.8 25.2,1.8 1.5,8.7 1.5,8.7 			"/>
			<polygon class="st162" points="25.2,1.8 25.2,1.9 1.5,8.7 1.5,8.7 			"/>
			<polygon class="st163" points="25.2,1.9 25.2,1.9 1.5,8.8 1.5,8.7 			"/>
			<polygon class="st164" points="25.2,1.9 25.2,1.9 1.5,8.8 1.5,8.8 			"/>
			<polygon class="st165" points="25.2,1.9 25.2,2 1.5,8.8 1.5,8.8 			"/>
			<polygon class="st166" points="25.2,2 25.2,2 1.5,8.9 1.5,8.8 			"/>
			<polygon class="st167" points="25.2,2 25.2,2 1.5,8.9 1.5,8.9 			"/>
			<polygon class="st168" points="25.2,2 25.3,2 1.5,8.9 1.5,8.9 			"/>
			<polygon class="st169" points="25.3,2 25.3,2.1 1.5,9 1.5,8.9 			"/>
			<polygon class="st170" points="25.3,2.1 25.3,2.1 1.5,9 1.5,9 			"/>
			<polygon class="st171" points="25.3,2.1 25.3,2.1 1.5,9 1.5,9 			"/>
			<polygon class="st172" points="25.3,2.1 25.3,2.2 1.5,9.1 1.5,9 			"/>
			<polygon class="st173" points="25.3,2.2 25.3,2.2 1.5,9.1 1.5,9.1 			"/>
			<polygon class="st174" points="25.3,2.2 25.3,2.2 1.5,9.1 1.5,9.1 			"/>
			<polygon class="st175" points="25.3,2.2 25.3,2.2 1.5,9.2 1.5,9.1 			"/>
			<polygon class="st176" points="25.3,2.2 25.3,2.3 1.5,9.2 1.5,9.2 			"/>
			<polygon class="st177" points="25.3,2.3 25.3,2.3 1.5,9.2 1.5,9.2 			"/>
			<polygon class="st178" points="25.3,2.3 25.3,2.3 1.5,9.3 1.5,9.2 			"/>
			<polygon class="st179" points="25.3,2.3 25.3,2.4 1.5,9.3 1.5,9.3 			"/>
			<polygon class="st180" points="25.3,2.4 25.4,2.4 1.5,9.3 1.5,9.3 			"/>
			<polygon class="st181" points="25.4,2.4 25.4,2.4 1.5,9.4 1.5,9.3 			"/>
			<polygon class="st182" points="25.4,2.4 25.4,2.5 1.5,9.4 1.5,9.4 			"/>
			<polygon class="st183" points="25.4,2.5 25.4,2.5 1.5,9.4 1.5,9.4 			"/>
			<polygon class="st184" points="25.4,2.5 25.4,2.5 1.5,9.4 1.5,9.4 			"/>
			<polygon class="st185" points="25.4,2.5 25.4,2.5 1.5,9.5 1.5,9.4 			"/>
			<polygon class="st186" points="25.4,2.5 25.4,2.6 1.5,9.5 1.5,9.5 			"/>
			<polygon class="st187" points="25.4,2.6 25.4,2.6 1.5,9.5 1.5,9.5 			"/>
			<polygon class="st188" points="25.4,2.6 25.4,2.6 1.5,9.6 1.5,9.5 			"/>
			<polygon class="st189" points="25.4,2.6 25.4,2.7 1.5,9.6 1.5,9.6 			"/>
			<polygon class="st190" points="25.4,2.7 25.4,2.7 1.5,9.6 1.5,9.6 			"/>
			<polygon class="st191" points="25.4,2.7 25.5,2.7 1.5,9.7 1.5,9.6 			"/>
			<polygon class="st192" points="25.5,2.7 25.5,2.8 1.5,9.7 1.5,9.7 			"/>
			<polygon class="st193" points="25.5,2.8 25.5,2.8 1.5,9.7 1.5,9.7 			"/>
			<polygon class="st194" points="25.5,2.8 25.5,2.8 1.5,9.8 1.5,9.7 			"/>
			<polygon class="st195" points="25.5,2.8 25.5,2.8 1.5,9.8 1.5,9.8 			"/>
			<polygon class="st196" points="25.5,2.8 25.5,2.9 1.5,9.8 1.5,9.8 			"/>
			<polygon class="st197" points="25.5,2.9 25.5,2.9 1.5,9.9 1.5,9.8 			"/>
			<polygon class="st198" points="25.5,2.9 25.5,2.9 1.5,9.9 1.5,9.9 			"/>
			<polygon class="st199" points="25.5,2.9 25.5,3 1.5,9.9 1.5,9.9 			"/>
			<polygon class="st200" points="25.5,3 25.5,3 1.5,10 1.5,9.9 			"/>
			<polygon class="st201" points="25.5,3 25.5,3 1.5,10 1.5,10 			"/>
			<polygon class="st202" points="25.5,3 25.5,3 1.5,10 1.5,10 			"/>
			<polygon class="st203" points="25.5,3 25.6,3.1 1.5,10.1 1.5,10 			"/>
			<polygon class="st204" points="25.6,3.1 25.6,3.1 1.5,10.1 1.5,10.1 			"/>
			<polygon class="st205" points="25.6,3.1 25.6,3.1 1.5,10.1 1.5,10.1 			"/>
			<polygon class="st206" points="25.6,3.1 25.6,3.2 1.5,10.2 1.5,10.1 			"/>
			<polygon class="st207" points="25.6,3.2 25.6,3.2 1.5,10.2 1.5,10.2 			"/>
			<polygon class="st208" points="25.6,3.2 25.6,3.2 1.5,10.2 1.5,10.2 			"/>
			<polygon class="st209" points="25.6,3.2 25.6,3.3 1.5,10.3 1.5,10.2 			"/>
			<polygon class="st210" points="25.6,3.3 25.6,3.3 1.5,10.3 1.5,10.3 			"/>
			<polygon class="st211" points="25.6,3.3 25.6,3.3 1.5,10.3 1.5,10.3 			"/>
			<polygon class="st212" points="25.6,3.3 25.6,3.3 1.5,10.3 1.5,10.3 			"/>
			<polygon class="st213" points="25.6,3.3 25.6,3.4 1.5,10.4 1.5,10.3 			"/>
			<polygon class="st214" points="25.6,3.4 25.6,3.4 1.5,10.4 1.5,10.4 			"/>
			<polygon class="st215" points="25.6,3.4 25.7,3.4 1.5,10.4 1.5,10.4 			"/>
			<polygon class="st216" points="25.7,3.4 25.7,3.5 1.5,10.5 1.5,10.4 			"/>
			<polygon class="st217" points="25.7,3.5 25.7,3.5 1.5,10.5 1.5,10.5 			"/>
			<polygon class="st218" points="25.7,3.5 25.7,3.5 1.5,10.5 1.5,10.5 			"/>
			<polygon class="st219" points="25.7,3.5 25.7,3.6 1.5,10.6 1.5,10.5 			"/>
			<polygon class="st220" points="25.7,3.6 25.7,3.6 1.5,10.6 1.5,10.6 			"/>
			<polygon class="st221" points="25.7,3.6 25.7,3.6 1.5,10.6 1.5,10.6 			"/>
			<polygon class="st222" points="25.7,3.6 25.7,3.6 1.5,10.7 1.5,10.6 			"/>
			<polygon class="st223" points="25.7,3.6 25.7,3.7 1.5,10.7 1.5,10.7 			"/>
			<polygon class="st224" points="25.7,3.7 25.7,3.7 1.5,10.7 1.5,10.7 			"/>
			<polygon class="st225" points="25.7,3.7 25.7,3.7 1.5,10.8 1.5,10.7 			"/>
			<polygon class="st226" points="25.7,3.7 25.8,3.8 1.5,10.8 1.5,10.8 			"/>
			<polygon class="st227" points="25.8,3.8 25.8,3.8 1.5,10.8 1.5,10.8 			"/>
			<polygon class="st228" points="25.8,3.8 25.8,3.8 1.5,10.9 1.5,10.8 			"/>
			<polygon class="st229" points="25.8,3.8 25.8,3.8 1.5,10.9 1.5,10.9 			"/>
			<polygon class="st230" points="25.8,3.8 25.8,3.9 1.5,10.9 1.5,10.9 			"/>
			<polygon class="st231" points="25.8,3.9 25.8,3.9 1.5,11 1.5,10.9 			"/>
			<polygon class="st232" points="25.8,3.9 25.8,3.9 1.5,11 1.5,11 			"/>
			<polygon class="st233" points="25.8,3.9 25.8,4 1.5,11 1.5,11 			"/>
			<polygon class="st234" points="25.8,4 25.8,4 1.5,11.1 1.5,11 			"/>
			<polygon class="st235" points="25.8,4 25.8,4 1.5,11.1 1.5,11.1 			"/>
			<polygon class="st236" points="25.8,4 25.8,4.1 1.5,11.1 1.5,11.1 			"/>
			<polygon class="st237" points="25.8,4.1 25.8,4.1 1.5,11.1 1.5,11.1 			"/>
			<polygon class="st238" points="25.8,4.1 25.9,4.1 1.5,11.2 1.5,11.1 			"/>
			<polygon class="st239" points="25.9,4.1 25.9,4.1 1.5,11.2 1.5,11.2 			"/>
			<polygon class="st240" points="25.9,4.1 25.9,4.2 1.5,11.2 1.5,11.2 			"/>
			<polygon class="st241" points="25.9,4.2 25.9,4.2 1.5,11.3 1.5,11.2 			"/>
			<polygon class="st242" points="25.9,4.2 25.9,4.2 1.5,11.3 1.5,11.3 			"/>
			<polygon class="st243" points="25.9,4.2 25.9,4.3 1.5,11.3 1.5,11.3 			"/>
			<polygon class="st244" points="25.9,4.3 25.9,4.3 1.5,11.4 1.5,11.3 			"/>
			<polygon class="st245" points="25.9,4.3 25.9,4.3 1.5,11.4 1.5,11.4 			"/>
			<polygon class="st246" points="25.9,4.3 25.9,4.4 1.5,11.4 1.5,11.4 			"/>
			<polygon class="st247" points="25.9,4.4 25.9,4.4 1.5,11.5 1.5,11.4 			"/>
			<polygon class="st248" points="25.9,4.4 25.9,4.4 1.5,11.5 1.5,11.5 			"/>
			<polygon class="st248" points="25.9,4.4 26,4.4 1.5,11.5 1.5,11.5 			"/>
			<polygon class="st249" points="26,4.4 26,4.5 1.5,11.6 1.5,11.5 			"/>
			<polygon class="st250" points="26,4.5 26,4.5 1.5,11.6 1.5,11.6 			"/>
			<polygon class="st251" points="26,4.5 26,4.5 1.5,11.6 1.5,11.6 			"/>
			<polygon class="st252" points="26,4.5 26,4.6 1.5,11.7 1.5,11.6 			"/>
			<polygon class="st253" points="26,4.6 26,4.6 1.5,11.7 1.5,11.7 			"/>
			<polygon class="st254" points="26,4.6 26,4.6 1.5,11.7 1.5,11.7 			"/>
			<polygon class="st255" points="26,4.6 26,4.6 1.5,11.8 1.5,11.7 			"/>
			<polygon class="st255" points="26,4.6 28.5,13.1 28.5,27.9 26.4,28.5 4.9,28.5 1.5,16.9 1.5,11.8 			"/>
			<polygon class="st255" points="26.4,28.5 28.5,27.9 28.5,28.5 			"/>
		</g>
		<g>
			<polygon class="st256" points="16.9,10.7 14.9,7.4 9.3,17.2 9.3,17.2 13.1,17.2 16.9,10.7 			"/>
			<path class="st257" d="M13.2,17.2H9.3l0,0l5.7-9.8l2,3.4l0,0L13.2,17.2z M9.3,17.1h3.8l3.7-6.4l-1.9-3.3L9.3,17.1z"/>
		</g>
		<g>
			<polygon class="st256" points="17.1,11.2 15.2,14.5 18.9,20.9 22.7,20.9 17.1,11.2 			"/>
			<path class="st257" d="M22.8,20.9h-3.9l0,0l-3.7-6.4l0,0l2-3.4l0,0L22.8,20.9z M18.9,20.9h3.8l-5.6-9.6l-1.9,3.3L18.9,20.9z"/>
		</g>
		<g>
			<polygon class="st256" points="9,17.6 9,17.6 7.1,20.9 18.3,20.9 16.4,17.6 			"/>
			<path class="st257" d="M18.4,20.9H7.1l0,0L9,17.6h7.4l0,0L18.4,20.9z M7.2,20.9h11.1l-1.9-3.2H9L7.2,20.9z"/>
		</g>
	</g>
</g>
</svg>
