<?xml version="1.0" encoding="utf-8"?>
<!-- Generator: Adobe Illustrator 27.9.0, SVG Export Plug-In . SVG Version: 6.00 Build 0)  -->
<svg version="1.1" id="Layer_1" xmlns="http://www.w3.org/2000/svg" xmlns:xlink="http://www.w3.org/1999/xlink" x="0px" y="0px"
	 viewBox="0 0 30 30" style="enable-background:new 0 0 30 30;" xml:space="preserve">
<style type="text/css">
	.st0{fill:#FFFFFF;}
	.st1{fill:#005992;}
	.st2{fill:#D71049;}
</style>
<g>
	<g>
		<path class="st0" d="M25.9,29.9H4.1c-2.2,0-4-1.8-4-4V4.1c0-2.2,1.8-4,4-4h21.8c2.2,0,4,1.8,4,4v21.8
			C29.9,28.1,28.1,29.9,25.9,29.9z"/>
		<path class="st1" d="M0.1,27C0.1,26.6,0,26.3,0,25.9V4.1C0,1.8,1.8,0,4.1,0h21.8C28.2,0,30,1.8,30,4.1v21.8c0,2.3-1.8,4.1-4.1,4.1
			H4.1C3,30,2,29.6,1.2,28.8C0.7,28.3,0.3,27.6,0.1,27z M29.6,3.1c-0.4-1.6-1.9-2.8-3.7-2.8H4.1C2,0.2,0.3,2,0.3,4.1v21.8
			c0,1,0.4,2,1.1,2.7c0.7,0.7,1.7,1.1,2.7,1.1h21.8c2.1,0,3.8-1.7,3.8-3.8V4.1C29.8,3.8,29.7,3.4,29.6,3.1z"/>
	</g>
</g>
<g>
	<path class="st1" d="M13.5,5c1.3-0.2,2.5-0.1,3.8,0.2c0.1,0,0.2,0,0.3,0.1c2.1,0.6,4.1,1.9,5.4,3.6c0.8,1.1,1.4,2.3,1.7,3.6
		c0.3,1.3,0.4,2.8,0.2,4.1c0,0.1,0,0.3-0.1,0.4l0,0c-0.1,0.8-0.4,1.6-0.7,2.3c-1.8-0.9-3.8-1.7-5.9-2c-0.1,0-0.2,0-0.3-0.1
		c0-1.7,0-3.5,0-5.2c-1.9,0-3.9,0-5.8,0c-0.1,0.2,0,0.5,0,0.7c0,1.3,0,2.6,0,3.9c0,0.2,0,0.4-0.1,0.6c-2.1,0.3-4.2,1-6.1,2
		c-0.6-1.3-1-2.8-0.9-4.2c-0.1-2.5,0.9-5,2.6-6.8C9.1,6.5,11.2,5.4,13.5,5z"/>
	<path class="st2" d="M11,18.9c2.9-0.7,6-0.6,8.9,0.2c1.2,0.3,2.4,0.8,3.5,1.4c0,0,0,0.1,0,0.1c-0.7,0.9-1.4,1.8-2.4,2.5
		c-1.9,1.4-4.3,2.1-6.7,2c-2.3-0.2-4.5-1.1-6.2-2.7c-0.5-0.5-1-1.1-1.4-1.6c-0.1-0.1-0.1-0.1-0.1-0.2C8,19.8,9.4,19.2,11,18.9z"/>
</g>
</svg>
