<svg id="Layer_1" data-name="Layer 1" xmlns="http://www.w3.org/2000/svg" viewBox="0 0 30 30"><defs><style>.cls-1{fill:#fff;}.cls-2{fill:#e03;}</style></defs><path class="cls-1" d="M25.91,29.88H4.09a4,4,0,0,1-4-4V4.09a4,4,0,0,1,4-4H25.91a4,4,0,0,1,4,4V25.91A4,4,0,0,1,25.91,29.88Z"/><path class="cls-2" d="M25.91,30H4.09A4.1,4.1,0,0,1,0,25.91V4.09A4.1,4.1,0,0,1,4.09,0H25.91A4.1,4.1,0,0,1,30,4.09V25.91A4.1,4.1,0,0,1,25.91,30ZM4.09.25A3.84,3.84,0,0,0,.25,4.09h0V25.91a3.84,3.84,0,0,0,3.84,3.84H25.91a3.84,3.84,0,0,0,3.84-3.84h0V4.09A3.84,3.84,0,0,0,25.91.25H4.09Z"/><path class="cls-2" d="M27.73,7a2.27,2.27,0,0,0-2.2-1L3.83,9.07A2.3,2.3,0,0,0,2.52,13l13.25,13.3a2.29,2.29,0,0,0,1.62.68,2.19,2.19,0,0,0,.36,0,2.29,2.29,0,0,0,1.7-1.22L27.9,9.36A2.27,2.27,0,0,0,27.73,7Zm-.05,2.28L19.24,25.6a2,2,0,0,1-1.52,1.09,1.84,1.84,0,0,1-.33,0,2,2,0,0,1-1.45-.61L2.69,12.81a2.07,2.07,0,0,1,0-2.93A2.1,2.1,0,0,1,3.86,9.3l21.7-3.05.3,0a2.07,2.07,0,0,1,2.05,2.09A2,2,0,0,1,27.68,9.25Z"/><path class="cls-2" d="M25.21,6.71,4.34,9.64a1.87,1.87,0,0,0-1.6,2.12,1.82,1.82,0,0,0,.53,1.07L16,25.62a1.86,1.86,0,0,0,1.32.55,1.51,1.51,0,0,0,.3,0,1.87,1.87,0,0,0,1.38-1L27.15,9.43a1.88,1.88,0,0,0-.81-2.53,1.84,1.84,0,0,0-1.13-.19Zm1.72,2.61L18.8,25.05a1.64,1.64,0,0,1-2.21.7,1.73,1.73,0,0,1-.41-.3L3.44,12.66a1.64,1.64,0,0,1,.93-2.78L25.24,6.94h.24a1.64,1.64,0,0,1,1.63,1.65,1.73,1.73,0,0,1-.19.74Z"/><path class="cls-2" d="M24.8,7.41,4.94,10.2a1.5,1.5,0,0,0-1.28,1.69,1.45,1.45,0,0,0,.43.86L16.22,24.92a1.48,1.48,0,0,0,1.05.44,1,1,0,0,0,.24,0,1.48,1.48,0,0,0,1.1-.79l7.73-15a1.5,1.5,0,0,0-.64-2,1.48,1.48,0,0,0-.9-.15Zm1.33,2.06-7.73,15a1.26,1.26,0,0,1-1.7.54,1.44,1.44,0,0,1-.32-.23L4.26,12.58a1.26,1.26,0,0,1,0-1.79A1.34,1.34,0,0,1,5,10.43L24.83,7.65l.19,0a1.28,1.28,0,0,1,1.25,1.28,1.3,1.3,0,0,1-.14.57Z"/><path class="cls-2" d="M24.48,8.1l-19,2.67A1.08,1.08,0,0,0,4.54,12a1.1,1.1,0,0,0,.3.61L16.46,24.26a1.09,1.09,0,0,0,.76.32h.17a1.08,1.08,0,0,0,.79-.58L25.59,9.66a1.08,1.08,0,0,0-.46-1.45A1.05,1.05,0,0,0,24.48,8.1Zm.89,1.44L18,23.88a.84.84,0,0,1-1.13.36.8.8,0,0,1-.21-.15L5,12.43a.85.85,0,0,1,0-1.19A.87.87,0,0,1,5.49,11l19-2.68a.84.84,0,0,1,.94.71.77.77,0,0,1-.08.5Z"/><path class="cls-2" d="M24.16,8.79,6,11.34a.66.66,0,0,0-.55.74.65.65,0,0,0,.18.37L16.71,23.6a.61.61,0,0,0,.46.2h.1a.66.66,0,0,0,.48-.35L24.83,9.73a.65.65,0,0,0-.28-.88.66.66,0,0,0-.39-.06Zm.46.83L17.53,23.33a.41.41,0,0,1-.55.18.39.39,0,0,1-.1-.08L5.76,12.28a.41.41,0,0,1,0-.58A.39.39,0,0,1,6,11.58L24.2,9a.41.41,0,0,1,.46.35.43.43,0,0,1,0,.25Z"/><path class="cls-2" d="M23.44,9.53,6.89,11.86a.43.43,0,0,0-.37.49.45.45,0,0,0,.12.25L16.75,22.74a.44.44,0,0,0,.31.13h.06a.44.44,0,0,0,.33-.23l6.43-12.46a.43.43,0,0,0-.19-.59.47.47,0,0,0-.26-.05Zm.23.53L17.23,22.52a.19.19,0,0,1-.26.09l0,0L6.82,12.43a.19.19,0,0,1,0-.28.24.24,0,0,1,.11-.06L23.47,9.77h0a.2.2,0,0,1,.2.2.29.29,0,0,1,0,.09Z"/><path class="cls-2" d="M26.05,12.06A3.19,3.19,0,0,0,24.9,11L19,7.61,11.42,3.34A2.7,2.7,0,0,0,7.41,6l.34,3.23,1.13,11.1.39,3.81a3.25,3.25,0,0,0,5.43,2h0l7.79-7.2,3-2.78a3.23,3.23,0,0,0,.55-4.1Z"/><path class="cls-1" d="M18.85,13.31a.34.34,0,0,0-.34.33v.29a2.19,2.19,0,1,0,0,3.14v.29a.34.34,0,0,0,.67,0V13.64a.33.33,0,0,0-.33-.33ZM17,17a1.53,1.53,0,1,1,1.52-1.52A1.5,1.5,0,0,1,17,17Z"/><path class="cls-1" d="M12.15,13.31a2.17,2.17,0,0,0-1.52.62v-.29a.34.34,0,0,0-.67,0h0v5.23a.34.34,0,0,0,.67,0v-1.8a2.19,2.19,0,0,0,3-3.14A2.15,2.15,0,0,0,12.15,13.31Zm0,3.71a1.52,1.52,0,1,1,1.08-.44A1.52,1.52,0,0,1,12.15,17Z"/><path class="cls-1" d="M23.73,13.35a.34.34,0,0,0-.46.13h0l-1.53,2.66-1.55-2.66a.33.33,0,0,0-.45-.13.34.34,0,0,0-.12.46l1.73,3L20.26,18.7a.33.33,0,0,0,.57.33l3-5.22a.37.37,0,0,0,0-.25.36.36,0,0,0-.15-.21Z"/><path class="cls-1" d="M17.74,15.47a1.34,1.34,0,0,1-.72-.72s0,0,0,0l0,0a1.32,1.32,0,0,1-.71.72s0,0,0,0l0,0a1.35,1.35,0,0,1,.71.72,0,0,0,0,0,.05,0h0a1.34,1.34,0,0,1,.72-.72s0,0,0,0l0,0Z"/><path class="cls-1" d="M12.34,11.15h-.17a.12.12,0,0,0-.12.12v1.26a.12.12,0,0,0,.12.13h.17a.13.13,0,0,0,.13-.13V11.27A.12.12,0,0,0,12.34,11.15Z"/><path class="cls-1" d="M11,12.67c.11,0,.23,0,.29-.13L12,11.15h-.26a.27.27,0,0,0-.24.15l-.45,1s0,.06-.06.06,0,0,0-.06l-.46-1a.27.27,0,0,0-.24-.15H10l.72,1.39A.3.3,0,0,0,11,12.67Z"/><path class="cls-1" d="M20.09,12.66a.13.13,0,0,0,.12-.13V12.4h-.1a.57.57,0,0,1-.32-.07.34.34,0,0,1-.11-.32v-1.1a.13.13,0,0,0-.13-.12h-.17a.12.12,0,0,0-.12.13h0v1.24a.43.43,0,0,0,.19.39.82.82,0,0,0,.5.11Z"/><path class="cls-1" d="M14.87,12.16a.43.43,0,0,0,.19.39.86.86,0,0,0,.51.11h.13a.13.13,0,0,0,.13-.13V12.4h-.11a.57.57,0,0,1-.32-.07.34.34,0,0,1-.11-.32V11.4h.87v.76a.43.43,0,0,0,.19.39.82.82,0,0,0,.5.11H17a.12.12,0,0,0,.12-.13h0V12.4H17a.65.65,0,0,1-.32-.06c-.12-.08-.11-.23-.11-.33V11.4H17a.12.12,0,0,0,.12-.12h0v-.13h-.52v-.24a.13.13,0,0,0-.13-.12h-.17a.12.12,0,0,0-.12.12h0v.24h-.87v-.24a.13.13,0,0,0-.12-.12H15a.13.13,0,0,0-.13.12v.24h-.26v.13a.12.12,0,0,0,.13.12h.13Z"/><path class="cls-1" d="M14.43,12a.24.24,0,0,0,.09-.22.49.49,0,0,0-.27-.49,1.37,1.37,0,0,0-.62-.1,1.3,1.3,0,0,0-.7.14c-.21.14-.23.35-.23.63a.79.79,0,0,0,.14.55.7.7,0,0,0,.57.2h.93a.12.12,0,0,0,.12-.13V12.4h-.92c-.15,0-.33,0-.38-.18a.76.76,0,0,1,0-.21h1.1A.25.25,0,0,0,14.43,12ZM14,11.76h-.6c-.15,0-.27.06-.27.15v-.15c0-.1,0-.19.09-.26a.57.57,0,0,1,.39-.1.65.65,0,0,1,.36.07.24.24,0,0,1,.12.2s0,.09-.09.09Z"/><path class="cls-1" d="M17.92,12.66h.92a.13.13,0,0,0,.13-.13h0V12.4H18c-.15,0-.33,0-.38-.18a.75.75,0,0,1,0-.21h1.09a.26.26,0,0,0,.21-.06.3.3,0,0,0,.09-.23.48.48,0,0,0-.27-.48,1.4,1.4,0,0,0-.62-.1,1.35,1.35,0,0,0-.71.14c-.21.14-.22.35-.22.63a.84.84,0,0,0,.13.55A.73.73,0,0,0,17.92,12.66Zm-.28-.91a.29.29,0,0,1,.08-.25.56.56,0,0,1,.4-.1.61.61,0,0,1,.35.07.21.21,0,0,1,.12.2s0,.09-.09.09h-.59c-.15,0-.28.07-.28.15Z"/><path class="cls-1" d="M12.26,11h.08a.12.12,0,0,0,.13-.12h0v0a.13.13,0,0,0-.13-.13h-.17a.12.12,0,0,0-.12.13v.3A.22.22,0,0,1,12.26,11Z"/></svg>